<?xml version="1.0" encoding="UTF-8"?>
<svg id="Camada_1" data-name="Camada 1" xmlns="http://www.w3.org/2000/svg" viewBox="0 0 1920 1080">
  <defs>
    <style>
      .cls-1 {
        fill: #ff6b35;
      }
    </style>
  </defs>
  <g>
    <g>
      <path class="cls-1" d="M610.16,688.28l58.7-155.44h30.12l58.48,155.44h-25.06l-11.43-31.22h-74.31l-11.43,31.22h-25.06ZM654.35,636.17h58.92l-29.46-81.12-29.46,81.12Z"/>
      <path class="cls-1" d="M767.35,688.28v-115.86h21.55l1.1,16.27c2.93-4.25,6.45-7.66,10.55-10.22,4.1-2.56,8.5-4.47,13.19-5.72,4.69-1.24,9.23-1.87,13.63-1.87,11.14,0,19.9,2.38,26.27,7.14,6.38,4.77,10.92,11.14,13.63,19.13,2.71,7.99,4.07,17.04,4.07,27.15v63.98h-22.86v-59.36c0-4.69-.3-9.31-.88-13.85-.59-4.54-1.8-8.61-3.63-12.2-1.83-3.59-4.43-6.45-7.8-8.57-3.37-2.12-7.91-3.19-13.63-3.19-7.04,0-12.97,1.91-17.81,5.72-4.84,3.81-8.5,8.94-10.99,15.39-2.49,6.45-3.74,13.71-3.74,21.77v54.3h-22.64Z"/>
      <path class="cls-1" d="M939.72,689.6c-11.58,0-21.14-2.6-28.69-7.81-7.55-5.2-13.19-12.27-16.93-21.22-3.74-8.94-5.61-18.98-5.61-30.12s1.9-21.44,5.72-30.45c3.81-9.01,9.6-16.12,17.37-21.33,7.77-5.2,17.59-7.8,29.46-7.8,4.4,0,8.83.51,13.3,1.54,4.47,1.03,8.65,2.6,12.53,4.73,3.88,2.13,7.22,4.95,10,8.46v-52.76h22.64v155.44h-21.77l-.88-15.83c-2.64,3.96-5.9,7.22-9.78,9.78-3.89,2.57-8.17,4.44-12.86,5.61-4.69,1.17-9.53,1.76-14.51,1.76ZM943.45,669.37c7.47,0,13.67-1.83,18.58-5.5,4.91-3.66,8.61-8.5,11.1-14.51,2.49-6.01,3.74-12.53,3.74-19.57s-1.21-13.67-3.63-19.46c-2.42-5.79-6.08-10.4-10.99-13.85-4.91-3.44-11.18-5.17-18.8-5.17s-14.22,1.8-18.91,5.39c-4.69,3.59-8.1,8.39-10.22,14.4-2.13,6.01-3.19,12.61-3.19,19.79,0,5.28.58,10.22,1.76,14.84,1.17,4.62,3.04,8.72,5.61,12.31,2.56,3.59,5.9,6.38,10,8.35,4.1,1.98,9.09,2.97,14.95,2.97Z"/>
      <path class="cls-1" d="M1073.38,689.6c-12.02,0-22.2-2.45-30.56-7.37-8.35-4.91-14.7-11.83-19.02-20.78-4.32-8.94-6.49-19.27-6.49-31s2.2-22.24,6.6-31.11c4.4-8.87,10.77-15.83,19.13-20.89,8.35-5.06,18.54-7.58,30.56-7.58s22.2,2.53,30.56,7.58c8.35,5.06,14.65,12.06,18.91,21,4.25,8.94,6.38,19.35,6.38,31.22s-2.16,21.84-6.49,30.78c-4.32,8.94-10.63,15.87-18.91,20.78-8.28,4.91-18.51,7.37-30.67,7.37ZM1073.38,669.37c7.91,0,14.32-1.76,19.24-5.28,4.91-3.52,8.54-8.24,10.88-14.18,2.34-5.94,3.52-12.42,3.52-19.46s-1.17-13.48-3.52-19.35c-2.35-5.86-5.97-10.59-10.88-14.18-4.91-3.59-11.32-5.39-19.24-5.39s-14.15,1.8-19.13,5.39c-4.98,3.59-8.61,8.32-10.88,14.18-2.27,5.86-3.41,12.31-3.41,19.35s1.13,13.71,3.41,19.57c2.27,5.86,5.9,10.55,10.88,14.07,4.98,3.52,11.36,5.28,19.13,5.28Z"/>
      <path class="cls-1" d="M1147.25,688.28v-115.86h21.33l1.1,16.71c2.93-4.54,6.3-8.14,10.11-10.77,3.81-2.64,7.99-4.54,12.53-5.72,4.54-1.17,9.31-1.76,14.29-1.76h7.04v21.76h-7.04c-8.35,0-15.28,1.69-20.78,5.06-5.5,3.37-9.53,8.06-12.09,14.07-2.57,6.01-3.85,12.9-3.85,20.67v55.84h-22.64Z"/>
      <path class="cls-1" d="M1236.51,557.02c-4.4,0-7.95-1.35-10.66-4.07-2.71-2.71-4.07-6.19-4.07-10.44s1.39-7.73,4.18-10.44c2.78-2.71,6.3-4.07,10.55-4.07,3.96,0,7.44,1.36,10.44,4.07,3,2.71,4.51,6.19,4.51,10.44s-1.43,7.73-4.29,10.44c-2.86,2.71-6.41,4.07-10.66,4.07ZM1225.3,688.28v-115.86h22.64v115.86h-22.64Z"/>
      <path class="cls-1" d="M1270.37,688.28v-115.86h21.55l1.1,16.27c2.93-4.25,6.45-7.66,10.55-10.22,4.1-2.56,8.5-4.47,13.19-5.72,4.69-1.24,9.23-1.87,13.63-1.87,11.14,0,19.9,2.38,26.27,7.14,6.38,4.77,10.92,11.14,13.63,19.13,2.71,7.99,4.07,17.04,4.07,27.15v63.98h-22.86v-59.36c0-4.69-.3-9.31-.88-13.85-.59-4.54-1.8-8.61-3.63-12.2-1.83-3.59-4.43-6.45-7.8-8.57-3.37-2.12-7.91-3.19-13.63-3.19-7.04,0-12.97,1.91-17.81,5.72-4.84,3.81-8.5,8.94-10.99,15.39-2.49,6.45-3.74,13.71-3.74,21.77v54.3h-22.64Z"/>
      <path class="cls-1" d="M1395.9,688.28v-155.44h22.64v55.84c3.08-3.96,6.63-7.26,10.66-9.89,4.03-2.64,8.39-4.62,13.08-5.94,4.69-1.32,9.38-1.98,14.07-1.98,11.14,0,19.86,2.38,26.16,7.14,6.3,4.77,10.77,11.18,13.41,19.24,2.64,8.06,3.96,17.15,3.96,27.26v63.76h-22.86v-58.48c0-4.69-.33-9.31-.99-13.85-.66-4.54-1.87-8.68-3.63-12.42-1.76-3.74-4.43-6.74-8.02-9.01-3.59-2.27-8.39-3.41-14.4-3.41s-10.59,1.25-14.62,3.74c-4.03,2.49-7.26,5.83-9.67,10-2.42,4.18-4.21,8.72-5.39,13.63-1.17,4.91-1.76,9.78-1.76,14.62v55.18h-22.64Z"/>
      <path class="cls-1" d="M1558.37,689.6c-5.28,0-10.37-.7-15.28-2.09-4.91-1.39-9.27-3.52-13.08-6.38-3.81-2.86-6.85-6.45-9.12-10.77-2.27-4.32-3.41-9.42-3.41-15.28,0-7.03,1.35-12.86,4.07-17.48,2.71-4.62,6.34-8.21,10.88-10.77,4.54-2.56,9.78-4.4,15.72-5.5,5.94-1.1,12.13-1.65,18.58-1.65h28.36c0-5.72-.88-10.74-2.64-15.06-1.76-4.32-4.51-7.7-8.24-10.11s-8.68-3.63-14.84-3.63c-3.67,0-7.15.41-10.44,1.21-3.3.81-6.12,2.09-8.46,3.85-2.35,1.76-3.96,4.11-4.84,7.04h-23.74c.88-5.57,2.86-10.37,5.94-14.4,3.08-4.03,6.89-7.37,11.43-10,4.54-2.64,9.42-4.58,14.62-5.83,5.2-1.24,10.52-1.87,15.94-1.87,16.71,0,28.76,4.87,36.17,14.62,7.4,9.75,11.1,23.12,11.1,40.12v62.66h-19.57l-.88-14.73c-3.37,4.54-7.37,7.99-11.98,10.33-4.62,2.35-9.2,3.89-13.74,4.62-4.54.73-8.72,1.1-12.53,1.1ZM1561.89,670.47c6.6,0,12.38-1.13,17.37-3.41,4.98-2.27,8.87-5.57,11.65-9.89,2.78-4.32,4.18-9.42,4.18-15.28v-4.84h-20.67c-4.25,0-8.39.11-12.42.33-4.03.22-7.69.81-10.99,1.76-3.3.96-5.94,2.53-7.91,4.73-1.98,2.2-2.97,5.35-2.97,9.45s1.02,7.18,3.08,9.67c2.05,2.49,4.76,4.36,8.13,5.61,3.37,1.25,6.89,1.87,10.55,1.87Z"/>
    </g>
    <g>
      <path class="cls-1" d="M626.7,773.12l-17.56-46.85h6.3l15.44,41.88,15.44-41.88h6.23l-17.49,46.85h-8.35Z"/>
      <path class="cls-1" d="M671.5,773.52c-3.67,0-6.74-.76-9.21-2.29-2.47-1.52-4.32-3.63-5.53-6.33-1.22-2.69-1.82-5.76-1.82-9.21s.62-6.57,1.86-9.24c1.24-2.67,3.09-4.78,5.57-6.33,2.47-1.55,5.57-2.32,9.28-2.32s6.73.77,9.18,2.32c2.45,1.55,4.28,3.66,5.5,6.33,1.21,2.67,1.82,5.75,1.82,9.24s-.62,6.52-1.86,9.21c-1.24,2.69-3.08,4.8-5.53,6.33s-5.53,2.29-9.24,2.29ZM671.5,768.55c2.56,0,4.65-.57,6.26-1.72,1.61-1.15,2.8-2.69,3.58-4.64.77-1.94,1.16-4.11,1.16-6.49s-.39-4.55-1.16-6.49c-.77-1.94-1.97-3.49-3.58-4.64-1.61-1.15-3.7-1.72-6.26-1.72s-4.58.57-6.2,1.72c-1.61,1.15-2.81,2.69-3.58,4.64-.77,1.94-1.16,4.11-1.16,6.49s.39,4.55,1.16,6.49c.77,1.94,1.97,3.49,3.58,4.64,1.61,1.15,3.68,1.72,6.2,1.72Z"/>
      <path class="cls-1" d="M709.13,773.52c-3.71,0-6.78-.76-9.21-2.29-2.43-1.52-4.24-3.63-5.43-6.33s-1.79-5.76-1.79-9.21.63-6.57,1.89-9.24c1.26-2.67,3.1-4.78,5.53-6.33,2.43-1.55,5.41-2.32,8.95-2.32,2.74,0,5.09.52,7.06,1.56,1.97,1.04,3.59,2.42,4.87,4.14,1.28,1.72,2.21,3.61,2.78,5.67.57,2.05.82,4.12.73,6.2-.04.4-.08.8-.1,1.19-.02.4-.06.8-.1,1.19h-25.91c.18,2.03.68,3.87,1.52,5.5.84,1.63,2.03,2.93,3.58,3.88,1.55.95,3.47,1.43,5.76,1.43,1.15,0,2.31-.14,3.48-.43,1.17-.29,2.23-.78,3.18-1.49.95-.71,1.62-1.66,2.02-2.85h5.76c-.53,2.25-1.52,4.1-2.98,5.53s-3.2,2.5-5.23,3.18c-2.03.68-4.15,1.03-6.36,1.03ZM698.53,752.84h20.21c-.04-1.99-.49-3.73-1.33-5.23-.84-1.5-1.98-2.67-3.41-3.51-1.44-.84-3.15-1.26-5.14-1.26-2.17,0-3.99.46-5.47,1.39-1.48.93-2.62,2.14-3.41,3.64-.8,1.5-1.28,3.16-1.46,4.97Z"/>
      <path class="cls-1" d="M761.48,773.52c-3.67,0-6.7-.76-9.11-2.29-2.41-1.52-4.2-3.63-5.37-6.33-1.17-2.69-1.76-5.74-1.76-9.15s.61-6.33,1.82-9.04c1.21-2.72,3.07-4.88,5.57-6.49,2.5-1.61,5.67-2.42,9.51-2.42,2.39,0,4.52.4,6.39,1.19,1.88.8,3.43,1.96,4.67,3.48,1.24,1.52,2.1,3.44,2.58,5.73h-5.76c-.66-1.94-1.71-3.32-3.15-4.14-1.44-.82-3.13-1.23-5.07-1.23-2.65,0-4.77.62-6.36,1.86s-2.75,2.84-3.48,4.8c-.73,1.97-1.09,4.05-1.09,6.26s.37,4.42,1.13,6.36c.75,1.94,1.92,3.5,3.51,4.67s3.64,1.76,6.16,1.76c1.86,0,3.61-.4,5.27-1.19s2.75-2.21,3.28-4.24h5.83c-.44,2.39-1.38,4.35-2.82,5.9-1.44,1.55-3.18,2.68-5.23,3.41-2.05.73-4.23,1.09-6.53,1.09Z"/>
      <path class="cls-1" d="M796.67,773.52c-3.71,0-6.78-.76-9.21-2.29-2.43-1.52-4.24-3.63-5.43-6.33s-1.79-5.76-1.79-9.21.63-6.57,1.89-9.24c1.26-2.67,3.1-4.78,5.53-6.33,2.43-1.55,5.41-2.32,8.95-2.32,2.74,0,5.09.52,7.06,1.56,1.97,1.04,3.59,2.42,4.87,4.14,1.28,1.72,2.21,3.61,2.78,5.67.57,2.05.82,4.12.73,6.2-.04.4-.08.8-.1,1.19-.02.4-.06.8-.1,1.19h-25.91c.18,2.03.68,3.87,1.52,5.5.84,1.63,2.03,2.93,3.58,3.88,1.55.95,3.47,1.43,5.76,1.43,1.15,0,2.31-.14,3.48-.43,1.17-.29,2.23-.78,3.18-1.49.95-.71,1.62-1.66,2.02-2.85h5.76c-.53,2.25-1.52,4.1-2.98,5.53s-3.2,2.5-5.23,3.18c-2.03.68-4.15,1.03-6.36,1.03ZM786.06,752.84h20.21c-.04-1.99-.49-3.73-1.33-5.23-.84-1.5-1.98-2.67-3.41-3.51-1.44-.84-3.15-1.26-5.14-1.26-2.17,0-3.99.46-5.47,1.39-1.48.93-2.62,2.14-3.41,3.64-.8,1.5-1.28,3.16-1.46,4.97Z"/>
      <path class="cls-1" d="M817.87,773.12v-34.92h5.43l.27,5.43c.88-1.37,1.91-2.47,3.08-3.31,1.17-.84,2.47-1.47,3.91-1.89,1.44-.42,2.99-.63,4.67-.63h1.79v5.3h-2.05c-2.74,0-4.96.59-6.66,1.76-1.7,1.17-2.93,2.74-3.68,4.7-.75,1.97-1.13,4.14-1.13,6.53v17.03h-5.63Z"/>
      <path class="cls-1" d="M855.11,773.12c-2.65,0-4.78-.4-6.39-1.19-1.61-.8-2.78-2.03-3.51-3.71-.73-1.68-1.09-3.8-1.09-6.36v-18.69h-5.7v-4.97h5.7v-10.4h5.63v10.4h9.34v4.97h-9.34v18.09c0,2.39.43,4.14,1.29,5.27.86,1.13,2.62,1.69,5.27,1.69h2.58v4.9h-3.78Z"/>
      <path class="cls-1" d="M879.03,773.52c-3.67,0-6.74-.76-9.21-2.29-2.47-1.52-4.32-3.63-5.53-6.33-1.22-2.69-1.82-5.76-1.82-9.21s.62-6.57,1.86-9.24c1.24-2.67,3.09-4.78,5.57-6.33,2.47-1.55,5.57-2.32,9.28-2.32s6.73.77,9.18,2.32c2.45,1.55,4.28,3.66,5.5,6.33,1.21,2.67,1.82,5.75,1.82,9.24s-.62,6.52-1.86,9.21c-1.24,2.69-3.08,4.8-5.53,6.33-2.45,1.52-5.53,2.29-9.24,2.29ZM879.03,768.55c2.56,0,4.65-.57,6.26-1.72,1.61-1.15,2.8-2.69,3.58-4.64.77-1.94,1.16-4.11,1.16-6.49s-.39-4.55-1.16-6.49c-.77-1.94-1.97-3.49-3.58-4.64-1.61-1.15-3.7-1.72-6.26-1.72s-4.58.57-6.2,1.72c-1.61,1.15-2.81,2.69-3.58,4.64-.77,1.94-1.16,4.11-1.16,6.49s.39,4.55,1.16,6.49c.77,1.94,1.97,3.49,3.58,4.64,1.61,1.15,3.68,1.72,6.2,1.72Z"/>
      <path class="cls-1" d="M905.53,773.65c-1.15,0-2.1-.38-2.85-1.13-.75-.75-1.13-1.7-1.13-2.85s.37-2.1,1.13-2.85c.75-.75,1.7-1.13,2.85-1.13s2.1.38,2.85,1.13c.75.75,1.13,1.7,1.13,2.85s-.38,2.1-1.13,2.85c-.75.75-1.7,1.13-2.85,1.13Z"/>
      <path class="cls-1" d="M947.01,773.12l-17.56-46.85h6.29l15.44,41.88,15.44-41.88h6.23l-17.49,46.85h-8.35Z"/>
      <path class="cls-1" d="M991.81,773.52c-3.67,0-6.74-.76-9.21-2.29-2.47-1.52-4.32-3.63-5.53-6.33-1.22-2.69-1.82-5.76-1.82-9.21s.62-6.57,1.86-9.24c1.24-2.67,3.09-4.78,5.57-6.33,2.47-1.55,5.57-2.32,9.28-2.32s6.73.77,9.18,2.32c2.45,1.55,4.28,3.66,5.5,6.33,1.21,2.67,1.82,5.75,1.82,9.24s-.62,6.52-1.86,9.21c-1.24,2.69-3.08,4.8-5.53,6.33-2.45,1.52-5.53,2.29-9.24,2.29ZM991.81,768.55c2.56,0,4.65-.57,6.26-1.72,1.61-1.15,2.8-2.69,3.58-4.64.77-1.94,1.16-4.11,1.16-6.49s-.39-4.55-1.16-6.49c-.77-1.94-1.97-3.49-3.58-4.64-1.61-1.15-3.7-1.72-6.26-1.72s-4.58.57-6.2,1.72c-1.61,1.15-2.81,2.69-3.58,4.64-.77,1.94-1.16,4.11-1.16,6.49s.39,4.55,1.16,6.49c.77,1.94,1.97,3.49,3.58,4.64,1.61,1.15,3.68,1.72,6.2,1.72Z"/>
      <path class="cls-1" d="M1029.44,773.52c-3.71,0-6.78-.76-9.21-2.29-2.43-1.52-4.24-3.63-5.43-6.33-1.19-2.69-1.79-5.76-1.79-9.21s.63-6.57,1.89-9.24c1.26-2.67,3.1-4.78,5.53-6.33,2.43-1.55,5.41-2.32,8.95-2.32,2.74,0,5.09.52,7.06,1.56,1.97,1.04,3.59,2.42,4.87,4.14,1.28,1.72,2.21,3.61,2.78,5.67.57,2.05.82,4.12.73,6.2-.04.4-.08.8-.1,1.19-.02.4-.06.8-.1,1.19h-25.91c.18,2.03.68,3.87,1.52,5.5.84,1.63,2.03,2.93,3.58,3.88,1.55.95,3.47,1.43,5.76,1.43,1.15,0,2.31-.14,3.48-.43,1.17-.29,2.23-.78,3.18-1.49.95-.71,1.62-1.66,2.02-2.85h5.76c-.53,2.25-1.52,4.1-2.98,5.53-1.46,1.44-3.2,2.5-5.23,3.18-2.03.68-4.15,1.03-6.36,1.03ZM1018.84,752.84h20.21c-.04-1.99-.49-3.73-1.33-5.23-.84-1.5-1.98-2.67-3.41-3.51-1.44-.84-3.15-1.26-5.14-1.26-2.16,0-3.99.46-5.47,1.39-1.48.93-2.62,2.14-3.41,3.64-.8,1.5-1.28,3.16-1.46,4.97Z"/>
      <path class="cls-1" d="M1078.08,773.52c-1.59,0-3.13-.21-4.61-.63-1.48-.42-2.81-1.06-3.98-1.92-1.17-.86-2.1-1.94-2.78-3.25-.69-1.3-1.03-2.82-1.03-4.54,0-1.99.36-3.67,1.09-5.04.73-1.37,1.71-2.45,2.95-3.25,1.24-.8,2.67-1.37,4.31-1.72,1.63-.35,3.33-.53,5.1-.53h10.27c0-1.99-.28-3.71-.83-5.17-.55-1.46-1.45-2.59-2.68-3.41-1.24-.82-2.87-1.23-4.9-1.23-1.24,0-2.39.13-3.45.4-1.06.27-1.97.69-2.72,1.26-.75.57-1.3,1.35-1.66,2.32h-6.03c.31-1.59.92-2.95,1.82-4.07.9-1.13,2.01-2.05,3.31-2.78,1.3-.73,2.71-1.27,4.21-1.62,1.5-.35,3-.53,4.51-.53,5.04,0,8.61,1.48,10.73,4.44,2.12,2.96,3.18,6.96,3.18,11.99v18.88h-4.7l-.33-4.44c-.97,1.33-2.14,2.34-3.51,3.05-1.37.71-2.77,1.18-4.21,1.42-1.44.24-2.79.36-4.08.36ZM1078.61,768.55c2.21,0,4.12-.36,5.73-1.09,1.61-.73,2.86-1.8,3.74-3.21.88-1.41,1.33-3.14,1.33-5.17v-1.72h-6.16c-1.46,0-2.89.02-4.31.07-1.41.04-2.69.22-3.84.53-1.15.31-2.07.84-2.75,1.59-.69.75-1.03,1.83-1.03,3.25,0,1.33.34,2.41,1.03,3.25.68.84,1.59,1.47,2.72,1.89,1.13.42,2.31.63,3.55.63Z"/>
      <path class="cls-1" d="M1102,773.12v-46.85h5.63v46.85h-5.63Z"/>
      <path class="cls-1" d="M1129.04,773.12c-2.65,0-4.78-.4-6.39-1.19-1.61-.8-2.78-2.03-3.51-3.71-.73-1.68-1.09-3.8-1.09-6.36v-18.69h-5.7v-4.97h5.7v-10.4h5.63v10.4h9.34v4.97h-9.34v18.09c0,2.39.43,4.14,1.29,5.27.86,1.13,2.62,1.69,5.27,1.69h2.58v4.9h-3.78Z"/>
      <path class="cls-1" d="M1152.96,773.52c-3.67,0-6.74-.76-9.21-2.29-2.47-1.52-4.32-3.63-5.53-6.33-1.22-2.69-1.82-5.76-1.82-9.21s.62-6.57,1.86-9.24c1.24-2.67,3.09-4.78,5.57-6.33,2.47-1.55,5.57-2.32,9.28-2.32s6.73.77,9.18,2.32c2.45,1.55,4.28,3.66,5.5,6.33,1.21,2.67,1.82,5.75,1.82,9.24s-.62,6.52-1.86,9.21c-1.24,2.69-3.08,4.8-5.53,6.33-2.45,1.52-5.53,2.29-9.24,2.29ZM1152.96,768.55c2.56,0,4.65-.57,6.26-1.72,1.61-1.15,2.8-2.69,3.58-4.64.77-1.94,1.16-4.11,1.16-6.49s-.39-4.55-1.16-6.49c-.77-1.94-1.97-3.49-3.58-4.64-1.61-1.15-3.7-1.72-6.26-1.72s-4.58.57-6.2,1.72c-1.61,1.15-2.81,2.69-3.58,4.64-.77,1.94-1.16,4.11-1.16,6.49s.39,4.55,1.16,6.49c.77,1.94,1.97,3.49,3.58,4.64,1.61,1.15,3.68,1.72,6.2,1.72Z"/>
      <path class="cls-1" d="M1179.46,773.65c-1.15,0-2.1-.38-2.85-1.13-.75-.75-1.13-1.7-1.13-2.85s.37-2.1,1.13-2.85c.75-.75,1.7-1.13,2.85-1.13s2.1.38,2.85,1.13c.75.75,1.13,1.7,1.13,2.85s-.38,2.1-1.13,2.85c-.75.75-1.7,1.13-2.85,1.13Z"/>
    </g>
  </g>
  <path class="cls-1" d="M365.74,777.8c-1.66,0-3.34-.45-4.85-1.39-4.3-2.68-5.61-8.35-2.93-12.65l.11-.18c35.62-57.15,45.73-100.47,30.04-128.76-25.04-45.14-112.66-50.93-186.2-50.93-5.07,0-9.18-4.11-9.18-9.18s4.11-9.18,9.18-9.18h279.73l24.21-38.79c-262.18-3.95-299.37-102.15-300.85-106.41-.98-2.81-.53-5.91,1.19-8.34,1.72-2.42,4.51-3.86,7.48-3.86h375.87c-30.34-48.51-90-67.25-90.64-67.44-4.35-1.33-7.07-5.64-6.4-10.14.67-4.5,4.53-7.82,9.07-7.82h147.24c34.04,0,59.76,9.53,76.43,28.32,23.48,26.46,19.62,61.19,19.44,62.66-.4,3.35-2.61,6.21-5.75,7.45-3.13,1.24-6.7.66-9.28-1.51-.14-.11-16.97-13.76-35.66-8.47-17.32,4.9-32.45,24.95-43.76,57.99-19.19,56.05-54.28,84.25-80.35,98.03-28.39,15.01-52.24,16.63-53.24,16.69-.19.01-.38.02-.56.02h-24.27l-118.21,189.45s-.06.09-.08.13h0c-1.74,2.79-4.73,4.32-7.8,4.32ZM349.85,583.89c32.36,11.74,46.23,27.44,54.32,42.02,7.86,14.18,10.91,30.51,9.11,49.18l56.91-91.2h-120.34ZM503.28,565.53h12.49c4.24-.33,46.34-4.49,81.61-41.81,12.42-36.06,12.91-68.7,1.5-97.24H230.13c20.35,25.48,88.46,82.01,292.19,82.01,3.34,0,6.41,1.81,8.03,4.73,1.62,2.92,1.52,6.48-.24,9.31l-26.83,42.99ZM543.74,341.08c23.09,13.44,50.83,35.23,67.42,68.01,11.38,22.48,15.98,47.14,13.81,73.7,2.87-6.08,5.52-12.59,7.91-19.59,13.58-39.69,32.55-63.16,56.37-69.77,14.24-3.96,27.23-.98,36.7,3.01-1.33-9.79-5.01-22.67-14.55-33.35-13.05-14.6-34.1-22.01-62.57-22.01h-105.08Z"/>
</svg>