<?xml version="1.0" encoding="UTF-8"?>
<svg id="Camada_1" data-name="Camada 1" xmlns="http://www.w3.org/2000/svg" viewBox="0 0 1920 1080">
  <defs>
    <style>
      .cls-1 {
        fill: #00072d;
      }

      .cls-2 {
        fill: #84d2f6;
      }

      .cls-3 {
        fill: #fff;
      }
    </style>
  </defs>
  <rect class="cls-2" x="-1.2" y=".84" width="1922.4" height="1078.31"/>
  <g>
    <g>
      <path class="cls-3" d="M649.36,855.34l-20.23-53.98h7.25l17.79,48.26,17.79-48.26h7.18l-20.16,53.98h-9.62Z"/>
      <path class="cls-3" d="M700.98,855.8c-4.23,0-7.76-.88-10.61-2.63-2.85-1.76-4.98-4.19-6.38-7.29-1.4-3.1-2.1-6.64-2.1-10.61s.71-7.57,2.14-10.65c1.42-3.08,3.56-5.51,6.41-7.29,2.85-1.78,6.41-2.67,10.69-2.67s7.75.89,10.58,2.67c2.82,1.78,4.94,4.21,6.34,7.29,1.4,3.08,2.1,6.63,2.1,10.65s-.71,7.51-2.14,10.61c-1.43,3.11-3.55,5.54-6.38,7.29-2.83,1.76-6.38,2.63-10.65,2.63ZM700.98,850.07c2.95,0,5.36-.66,7.22-1.98,1.86-1.32,3.23-3.1,4.12-5.34.89-2.24,1.34-4.73,1.34-7.48s-.45-5.24-1.34-7.48c-.89-2.24-2.27-4.02-4.12-5.34-1.86-1.32-4.26-1.99-7.22-1.99s-5.28.66-7.14,1.99c-1.86,1.32-3.23,3.11-4.12,5.34-.89,2.24-1.34,4.73-1.34,7.48s.44,5.24,1.34,7.48c.89,2.24,2.26,4.02,4.12,5.34,1.86,1.32,4.24,1.98,7.14,1.98Z"/>
      <path class="cls-3" d="M744.34,855.8c-4.28,0-7.81-.88-10.61-2.63-2.8-1.76-4.89-4.19-6.26-7.29-1.37-3.1-2.06-6.64-2.06-10.61s.73-7.57,2.18-10.65c1.45-3.08,3.58-5.51,6.38-7.29,2.8-1.78,6.23-2.67,10.31-2.67,3.16,0,5.87.6,8.13,1.79,2.26,1.2,4.13,2.79,5.61,4.77,1.48,1.99,2.54,4.16,3.21,6.53.66,2.37.94,4.75.84,7.14-.05.46-.09.92-.11,1.37-.03.46-.06.92-.11,1.37h-29.85c.2,2.34.79,4.45,1.76,6.34.97,1.88,2.34,3.37,4.12,4.47,1.78,1.1,4,1.64,6.64,1.64,1.32,0,2.66-.16,4.01-.5,1.35-.33,2.57-.9,3.67-1.72,1.09-.81,1.87-1.91,2.33-3.28h6.64c-.61,2.6-1.76,4.72-3.44,6.38-1.68,1.65-3.69,2.88-6.03,3.66-2.34.79-4.79,1.18-7.33,1.18ZM732.13,831.98h23.29c-.05-2.29-.56-4.3-1.53-6.03-.97-1.73-2.28-3.08-3.93-4.05-1.65-.97-3.63-1.45-5.92-1.45-2.49,0-4.59.53-6.3,1.6-1.71,1.07-3.02,2.47-3.93,4.2-.92,1.73-1.48,3.64-1.68,5.73Z"/>
      <path class="cls-3" d="M804.66,855.8c-4.23,0-7.73-.88-10.5-2.63-2.77-1.76-4.84-4.19-6.18-7.29-1.35-3.1-2.02-6.62-2.02-10.54s.7-7.29,2.1-10.42c1.4-3.13,3.54-5.62,6.41-7.48,2.88-1.86,6.53-2.79,10.96-2.79,2.75,0,5.2.46,7.37,1.37,2.16.92,3.96,2.25,5.38,4.01,1.42,1.76,2.42,3.96,2.98,6.6h-6.64c-.76-2.24-1.97-3.83-3.63-4.77-1.65-.94-3.6-1.41-5.84-1.41-3.05,0-5.5.71-7.33,2.14-1.83,1.43-3.17,3.27-4.01,5.54-.84,2.27-1.26,4.67-1.26,7.22s.43,5.09,1.3,7.33c.87,2.24,2.21,4.04,4.05,5.38,1.83,1.35,4.2,2.02,7.1,2.02,2.14,0,4.16-.46,6.07-1.37,1.91-.92,3.17-2.54,3.78-4.89h6.72c-.51,2.75-1.59,5.01-3.25,6.8-1.65,1.78-3.66,3.09-6.03,3.93-2.37.84-4.87,1.26-7.52,1.26Z"/>
      <path class="cls-3" d="M845.21,855.8c-4.28,0-7.81-.88-10.61-2.63-2.8-1.76-4.89-4.19-6.26-7.29-1.37-3.1-2.06-6.64-2.06-10.61s.73-7.57,2.18-10.65c1.45-3.08,3.58-5.51,6.38-7.29,2.8-1.78,6.23-2.67,10.31-2.67,3.16,0,5.87.6,8.13,1.79,2.26,1.2,4.13,2.79,5.61,4.77,1.48,1.99,2.54,4.16,3.21,6.53.66,2.37.94,4.75.84,7.14-.05.46-.09.92-.11,1.37-.03.46-.06.92-.11,1.37h-29.85c.2,2.34.79,4.45,1.76,6.34.97,1.88,2.34,3.37,4.12,4.47,1.78,1.1,4,1.64,6.64,1.64,1.32,0,2.66-.16,4.01-.5,1.35-.33,2.57-.9,3.67-1.72,1.09-.81,1.87-1.91,2.33-3.28h6.64c-.61,2.6-1.76,4.72-3.44,6.38-1.68,1.65-3.69,2.88-6.03,3.66-2.34.79-4.79,1.18-7.33,1.18ZM832.99,831.98h23.29c-.05-2.29-.56-4.3-1.53-6.03-.97-1.73-2.28-3.08-3.93-4.05-1.65-.97-3.63-1.45-5.92-1.45-2.49,0-4.59.53-6.3,1.6-1.71,1.07-3.02,2.47-3.93,4.2-.92,1.73-1.48,3.64-1.68,5.73Z"/>
      <path class="cls-3" d="M869.64,855.34v-40.24h6.26l.31,6.26c1.02-1.58,2.2-2.85,3.55-3.82,1.35-.97,2.85-1.69,4.5-2.18,1.65-.48,3.45-.73,5.38-.73h2.06v6.11h-2.37c-3.16,0-5.71.68-7.67,2.02-1.96,1.35-3.37,3.16-4.24,5.42-.87,2.27-1.3,4.77-1.3,7.52v19.62h-6.49Z"/>
      <path class="cls-3" d="M912.55,855.34c-3.05,0-5.51-.46-7.37-1.37-1.86-.92-3.21-2.34-4.05-4.28-.84-1.93-1.26-4.38-1.26-7.33v-21.53h-6.57v-5.73h6.57v-11.99h6.49v11.99h10.77v5.73h-10.77v20.84c0,2.75.5,4.77,1.49,6.07.99,1.3,3.02,1.95,6.07,1.95h2.98v5.65h-4.35Z"/>
      <path class="cls-3" d="M940.11,855.8c-4.23,0-7.76-.88-10.61-2.63-2.85-1.76-4.98-4.19-6.38-7.29-1.4-3.1-2.1-6.64-2.1-10.61s.71-7.57,2.14-10.65c1.42-3.08,3.56-5.51,6.41-7.29,2.85-1.78,6.41-2.67,10.69-2.67s7.75.89,10.58,2.67c2.82,1.78,4.94,4.21,6.34,7.29,1.4,3.08,2.1,6.63,2.1,10.65s-.71,7.51-2.14,10.61c-1.43,3.11-3.55,5.54-6.38,7.29-2.83,1.76-6.38,2.63-10.65,2.63ZM940.11,850.07c2.95,0,5.36-.66,7.22-1.98,1.86-1.32,3.23-3.1,4.12-5.34.89-2.24,1.34-4.73,1.34-7.48s-.45-5.24-1.34-7.48c-.89-2.24-2.27-4.02-4.12-5.34-1.86-1.32-4.26-1.99-7.22-1.99s-5.28.66-7.14,1.99c-1.86,1.32-3.23,3.11-4.12,5.34-.89,2.24-1.34,4.73-1.34,7.48s.44,5.24,1.34,7.48c.89,2.24,2.26,4.02,4.12,5.34,1.86,1.32,4.24,1.98,7.14,1.98Z"/>
      <path class="cls-3" d="M970.65,855.95c-1.32,0-2.42-.43-3.28-1.3-.87-.87-1.3-1.96-1.3-3.28s.43-2.42,1.3-3.28,1.96-1.3,3.28-1.3,2.42.43,3.28,1.3c.87.87,1.3,1.96,1.3,3.28s-.43,2.42-1.3,3.28c-.87.86-1.96,1.3-3.28,1.3Z"/>
      <path class="cls-3" d="M1018.45,855.34l-20.23-53.98h7.25l17.79,48.26,17.79-48.26h7.18l-20.16,53.98h-9.62Z"/>
      <path class="cls-3" d="M1070.06,855.8c-4.23,0-7.76-.88-10.61-2.63-2.85-1.76-4.98-4.19-6.38-7.29-1.4-3.1-2.1-6.64-2.1-10.61s.71-7.57,2.14-10.65c1.42-3.08,3.56-5.51,6.41-7.29,2.85-1.78,6.41-2.67,10.69-2.67s7.75.89,10.58,2.67c2.82,1.78,4.94,4.21,6.34,7.29,1.4,3.08,2.1,6.63,2.1,10.65s-.71,7.51-2.14,10.61c-1.43,3.11-3.55,5.54-6.38,7.29-2.83,1.76-6.38,2.63-10.65,2.63ZM1070.06,850.07c2.95,0,5.36-.66,7.22-1.98,1.86-1.32,3.23-3.1,4.12-5.34.89-2.24,1.34-4.73,1.34-7.48s-.45-5.24-1.34-7.48c-.89-2.24-2.27-4.02-4.12-5.34-1.86-1.32-4.26-1.99-7.22-1.99s-5.28.66-7.14,1.99c-1.86,1.32-3.23,3.11-4.12,5.34-.89,2.24-1.34,4.73-1.34,7.48s.44,5.24,1.34,7.48c.89,2.24,2.26,4.02,4.12,5.34,1.86,1.32,4.24,1.98,7.14,1.98Z"/>
      <path class="cls-3" d="M1113.43,855.8c-4.28,0-7.81-.88-10.61-2.63-2.8-1.76-4.89-4.19-6.26-7.29-1.37-3.1-2.06-6.64-2.06-10.61s.73-7.57,2.18-10.65c1.45-3.08,3.58-5.51,6.38-7.29,2.8-1.78,6.23-2.67,10.31-2.67,3.16,0,5.87.6,8.13,1.79,2.26,1.2,4.13,2.79,5.61,4.77,1.48,1.99,2.54,4.16,3.21,6.53.66,2.37.94,4.75.84,7.14-.05.46-.09.92-.11,1.37-.03.46-.06.92-.11,1.37h-29.85c.2,2.34.79,4.45,1.76,6.34.97,1.88,2.34,3.37,4.12,4.47,1.78,1.1,4,1.64,6.64,1.64,1.32,0,2.66-.16,4.01-.5,1.35-.33,2.57-.9,3.67-1.72,1.09-.81,1.87-1.91,2.33-3.28h6.64c-.61,2.6-1.76,4.72-3.44,6.38-1.68,1.65-3.69,2.88-6.03,3.66-2.34.79-4.79,1.18-7.33,1.18ZM1101.21,831.98h23.29c-.05-2.29-.56-4.3-1.53-6.03-.97-1.73-2.28-3.08-3.93-4.05-1.65-.97-3.63-1.45-5.92-1.45-2.49,0-4.59.53-6.3,1.6-1.71,1.07-3.02,2.47-3.93,4.2-.92,1.73-1.48,3.64-1.68,5.73Z"/>
      <path class="cls-3" d="M1169.47,855.8c-1.83,0-3.6-.24-5.31-.73-1.71-.48-3.23-1.22-4.58-2.21-1.35-.99-2.42-2.24-3.21-3.74-.79-1.5-1.18-3.25-1.18-5.23,0-2.29.42-4.22,1.26-5.8.84-1.58,1.97-2.83,3.4-3.74,1.42-.92,3.08-1.58,4.96-1.99,1.88-.41,3.84-.61,5.88-.61h11.83c0-2.29-.32-4.28-.95-5.96-.64-1.68-1.67-2.99-3.09-3.93-1.43-.94-3.31-1.41-5.65-1.41-1.43,0-2.75.15-3.97.46-1.22.31-2.27.79-3.13,1.45-.87.66-1.5,1.55-1.91,2.67h-6.95c.36-1.83,1.06-3.4,2.1-4.7,1.04-1.3,2.32-2.37,3.82-3.21,1.5-.84,3.12-1.46,4.85-1.87,1.73-.41,3.46-.61,5.19-.61,5.8,0,9.93,1.71,12.37,5.12,2.44,3.41,3.67,8.02,3.67,13.82v21.76h-5.42l-.38-5.12c-1.12,1.53-2.47,2.7-4.05,3.51-1.58.81-3.19,1.36-4.85,1.64-1.65.28-3.22.42-4.7.42ZM1170.08,850.07c2.54,0,4.75-.42,6.6-1.26,1.86-.84,3.29-2.07,4.31-3.7,1.02-1.63,1.53-3.61,1.53-5.96v-1.98h-7.1c-1.68,0-3.33.03-4.96.08-1.63.05-3.11.26-4.43.61-1.32.36-2.38.97-3.17,1.83-.79.87-1.18,2.11-1.18,3.74,0,1.53.39,2.77,1.18,3.74.79.97,1.83,1.69,3.13,2.18,1.3.48,2.66.73,4.08.73Z"/>
      <path class="cls-3" d="M1197.04,855.34v-53.98h6.49v53.98h-6.49Z"/>
      <path class="cls-3" d="M1228.19,855.34c-3.05,0-5.51-.46-7.37-1.37-1.86-.92-3.21-2.34-4.05-4.28-.84-1.93-1.26-4.38-1.26-7.33v-21.53h-6.57v-5.73h6.57v-11.99h6.49v11.99h10.77v5.73h-10.77v20.84c0,2.75.5,4.77,1.49,6.07.99,1.3,3.02,1.95,6.07,1.95h2.98v5.65h-4.35Z"/>
      <path class="cls-3" d="M1255.75,855.8c-4.23,0-7.76-.88-10.61-2.63-2.85-1.76-4.98-4.19-6.38-7.29-1.4-3.1-2.1-6.64-2.1-10.61s.71-7.57,2.14-10.65c1.42-3.08,3.56-5.51,6.41-7.29,2.85-1.78,6.41-2.67,10.69-2.67s7.75.89,10.58,2.67c2.82,1.78,4.94,4.21,6.34,7.29,1.4,3.08,2.1,6.63,2.1,10.65s-.71,7.51-2.14,10.61c-1.43,3.11-3.55,5.54-6.38,7.29-2.83,1.76-6.38,2.63-10.65,2.63ZM1255.75,850.07c2.95,0,5.36-.66,7.22-1.98,1.86-1.32,3.23-3.1,4.12-5.34.89-2.24,1.34-4.73,1.34-7.48s-.45-5.24-1.34-7.48c-.89-2.24-2.27-4.02-4.12-5.34-1.86-1.32-4.26-1.99-7.22-1.99s-5.28.66-7.14,1.99c-1.86,1.32-3.23,3.11-4.12,5.34-.89,2.24-1.34,4.73-1.34,7.48s.44,5.24,1.34,7.48c.89,2.24,2.26,4.02,4.12,5.34,1.86,1.32,4.24,1.98,7.14,1.98Z"/>
      <path class="cls-3" d="M1286.29,855.95c-1.32,0-2.42-.43-3.28-1.3-.87-.87-1.3-1.96-1.3-3.28s.43-2.42,1.3-3.28,1.96-1.3,3.28-1.3,2.42.43,3.28,1.3c.87.87,1.3,1.96,1.3,3.28s-.43,2.42-1.3,3.28c-.87.86-1.96,1.3-3.28,1.3Z"/>
    </g>
    <g>
      <path class="cls-3" d="M367.41,742.57l69.09-182.96h35.45l68.83,182.96h-29.5l-13.46-36.75h-87.47l-13.46,36.75h-29.5ZM419.42,681.24h69.35l-34.68-95.49-34.68,95.49Z"/>
      <path class="cls-3" d="M552.43,742.57v-136.38h25.36l1.29,19.15c3.45-5,7.59-9.01,12.42-12.03,4.83-3.02,10-5.26,15.53-6.73,5.52-1.46,10.87-2.2,16.04-2.2,13.11,0,23.42,2.81,30.92,8.41,7.5,5.61,12.85,13.11,16.04,22.51,3.19,9.4,4.79,20.06,4.79,31.96v75.3h-26.91v-69.87c0-5.52-.35-10.95-1.04-16.3-.69-5.35-2.11-10.13-4.27-14.36-2.16-4.23-5.22-7.59-9.19-10.09-3.97-2.5-9.32-3.75-16.04-3.75-8.28,0-15.27,2.24-20.96,6.73-5.69,4.49-10.01,10.52-12.94,18.11-2.94,7.59-4.4,16.13-4.4,25.62v63.92h-26.65Z"/>
      <path class="cls-3" d="M755.31,744.13c-13.63,0-24.89-3.06-33.77-9.19-8.89-6.12-15.53-14.45-19.93-24.97-4.4-10.52-6.6-22.34-6.6-35.45s2.24-25.23,6.73-35.84c4.48-10.61,11.3-18.98,20.44-25.1,9.14-6.12,20.7-9.19,34.68-9.19,5.18,0,10.39.61,15.66,1.81,5.26,1.21,10.18,3.06,14.75,5.56,4.57,2.5,8.5,5.82,11.77,9.96v-62.11h26.65v182.96h-25.62l-1.04-18.63c-3.1,4.66-6.95,8.5-11.52,11.52-4.57,3.02-9.62,5.22-15.14,6.6-5.52,1.38-11.22,2.07-17.08,2.07ZM759.71,720.32c8.8,0,16.08-2.16,21.87-6.47,5.78-4.31,10.13-10,13.07-17.08,2.93-7.07,4.4-14.75,4.4-23.03s-1.42-16.08-4.27-22.9c-2.85-6.81-7.16-12.25-12.94-16.3-5.78-4.05-13.16-6.08-22.13-6.08s-16.74,2.11-22.25,6.34c-5.52,4.23-9.53,9.88-12.03,16.95-2.5,7.08-3.75,14.84-3.75,23.29,0,6.21.69,12.03,2.07,17.47,1.38,5.43,3.58,10.27,6.6,14.49,3.02,4.23,6.94,7.5,11.77,9.83,4.83,2.33,10.69,3.49,17.6,3.49Z"/>
      <path class="cls-3" d="M912.65,744.13c-14.15,0-26.14-2.89-35.97-8.67-9.83-5.78-17.3-13.93-22.38-24.45-5.09-10.52-7.63-22.68-7.63-36.49s2.59-26.18,7.76-36.62c5.18-10.44,12.68-18.63,22.51-24.58,9.83-5.95,21.82-8.93,35.97-8.93s26.14,2.98,35.97,8.93c9.83,5.95,17.25,14.19,22.26,24.71,5,10.52,7.5,22.77,7.5,36.75s-2.55,25.71-7.63,36.23c-5.09,10.52-12.51,18.68-22.25,24.45-9.75,5.78-21.78,8.67-36.1,8.67ZM912.65,720.32c9.32,0,16.86-2.07,22.64-6.21,5.78-4.14,10.05-9.7,12.81-16.69,2.76-6.99,4.14-14.62,4.14-22.9s-1.38-15.87-4.14-22.77c-2.76-6.9-7.03-12.46-12.81-16.69-5.78-4.23-13.33-6.34-22.64-6.34s-16.65,2.11-22.51,6.34c-5.87,4.23-10.14,9.79-12.81,16.69-2.68,6.9-4.01,14.49-4.01,22.77s1.33,16.13,4.01,23.03c2.67,6.9,6.94,12.42,12.81,16.56,5.86,4.14,13.37,6.21,22.51,6.21Z"/>
      <path class="cls-3" d="M999.59,742.57v-136.38h25.1l1.29,19.67c3.45-5.35,7.42-9.57,11.9-12.68,4.48-3.11,9.4-5.35,14.75-6.73,5.35-1.38,10.95-2.07,16.82-2.07h8.28v25.62h-8.28c-9.83,0-17.99,1.99-24.45,5.95-6.47,3.97-11.22,9.49-14.23,16.56-3.02,7.08-4.53,15.18-4.53,24.33v65.73h-26.65Z"/>
      <path class="cls-3" d="M1104.65,588.08c-5.18,0-9.36-1.59-12.55-4.79-3.19-3.19-4.79-7.29-4.79-12.29s1.64-9.1,4.92-12.29c3.27-3.19,7.42-4.79,12.42-4.79,4.66,0,8.75,1.6,12.29,4.79,3.53,3.19,5.31,7.29,5.31,12.29s-1.68,9.1-5.05,12.29c-3.36,3.19-7.55,4.79-12.55,4.79ZM1091.46,742.57v-136.38h26.65v136.38h-26.65Z"/>
      <path class="cls-3" d="M1144.51,742.57v-136.38h25.36l1.29,19.15c3.45-5,7.59-9.01,12.42-12.03,4.83-3.02,10-5.26,15.53-6.73,5.52-1.46,10.87-2.2,16.04-2.2,13.11,0,23.42,2.81,30.92,8.41,7.5,5.61,12.85,13.11,16.04,22.51,3.19,9.4,4.79,20.06,4.79,31.96v75.3h-26.91v-69.87c0-5.52-.35-10.95-1.04-16.3-.69-5.35-2.11-10.13-4.27-14.36-2.16-4.23-5.22-7.59-9.19-10.09-3.97-2.5-9.32-3.75-16.04-3.75-8.28,0-15.27,2.24-20.96,6.73-5.69,4.49-10.01,10.52-12.94,18.11-2.94,7.59-4.4,16.13-4.4,25.62v63.92h-26.65Z"/>
      <path class="cls-3" d="M1292.27,742.57v-182.96h26.65v65.73c3.62-4.66,7.8-8.54,12.55-11.65,4.74-3.11,9.87-5.43,15.4-6.99,5.52-1.55,11.04-2.33,16.56-2.33,13.11,0,23.38,2.81,30.79,8.41,7.42,5.61,12.68,13.16,15.79,22.64,3.1,9.49,4.66,20.18,4.66,32.09v75.05h-26.91v-68.83c0-5.52-.39-10.95-1.16-16.3-.78-5.35-2.2-10.22-4.27-14.62-2.07-4.4-5.22-7.93-9.45-10.61-4.23-2.67-9.88-4.01-16.95-4.01s-12.47,1.47-17.21,4.4c-4.75,2.94-8.54,6.86-11.39,11.77-2.85,4.92-4.96,10.27-6.34,16.04-1.38,5.78-2.07,11.52-2.07,17.21v64.95h-26.65Z"/>
      <path class="cls-3" d="M1483.5,744.13c-6.21,0-12.21-.82-17.99-2.46-5.78-1.64-10.91-4.14-15.4-7.5-4.49-3.36-8.07-7.59-10.74-12.68-2.68-5.09-4.01-11.08-4.01-17.99,0-8.28,1.59-15.14,4.79-20.57,3.19-5.43,7.46-9.66,12.81-12.68,5.35-3.02,11.52-5.18,18.5-6.47s14.27-1.94,21.87-1.94h33.38c0-6.73-1.04-12.64-3.1-17.73-2.07-5.09-5.31-9.06-9.7-11.9-4.4-2.85-10.22-4.27-17.47-4.27-4.31,0-8.41.48-12.29,1.42-3.88.95-7.21,2.46-9.96,4.53-2.76,2.07-4.66,4.83-5.69,8.28h-27.95c1.03-6.55,3.36-12.2,6.99-16.95,3.62-4.74,8.11-8.67,13.46-11.77,5.35-3.11,11.08-5.39,17.21-6.86,6.12-1.46,12.38-2.2,18.76-2.2,19.67,0,33.86,5.74,42.57,17.21,8.71,11.48,13.07,27.22,13.07,47.23v73.75h-23.03l-1.04-17.34c-3.97,5.35-8.67,9.41-14.1,12.16-5.43,2.76-10.83,4.57-16.17,5.43-5.35.86-10.27,1.29-14.75,1.29ZM1487.64,721.61c7.76,0,14.58-1.33,20.44-4.01,5.86-2.67,10.44-6.55,13.72-11.65,3.27-5.09,4.92-11.08,4.92-17.98v-5.69h-24.33c-5.01,0-9.88.13-14.62.39-4.75.26-9.06.95-12.94,2.07-3.88,1.12-6.99,2.98-9.32,5.56-2.33,2.59-3.49,6.3-3.49,11.13s1.2,8.46,3.62,11.39c2.41,2.94,5.6,5.14,9.58,6.6,3.97,1.47,8.11,2.2,12.42,2.2Z"/>
    </g>
  </g>
  <path class="cls-1" d="M887.72,542.97c-1.16,0-2.34-.32-3.4-.98-3.02-1.88-3.93-5.85-2.05-8.86l.08-.12c24.97-40.05,32.05-70.41,21.05-90.23-17.55-31.63-78.95-35.69-130.49-35.69-3.55,0-6.43-2.88-6.43-6.43s2.88-6.43,6.43-6.43h196.04l16.97-27.19c-183.74-2.77-209.8-71.59-210.84-74.58-.68-1.97-.37-4.14.83-5.84,1.21-1.7,3.16-2.71,5.24-2.71h263.42c-21.26-34-63.07-47.13-63.52-47.26-3.05-.93-4.96-3.95-4.48-7.11.47-3.15,3.17-5.48,6.36-5.48h103.19c23.86,0,41.88,6.68,53.56,19.85,16.45,18.54,13.75,42.89,13.62,43.91-.28,2.35-1.83,4.35-4.03,5.22-2.19.87-4.69.46-6.5-1.06-.1-.08-11.89-9.65-24.99-5.93-12.14,3.43-22.74,17.48-30.67,40.64-13.45,39.28-38.04,59.04-56.31,68.7-19.89,10.52-36.61,11.65-37.31,11.69-.13,0-.26.01-.39.01h-17.01l-82.84,132.77s-.04.06-.06.09h0c-1.22,1.96-3.32,3.03-5.46,3.03ZM876.58,407.08c22.68,8.22,32.4,19.23,38.07,29.45,5.51,9.94,7.65,21.38,6.38,34.47l39.88-63.92h-84.33ZM984.11,394.21h8.75c2.97-.23,32.48-3.15,57.19-29.3,8.7-25.27,9.05-48.15,1.05-68.14h-258.43c14.26,17.86,61.99,57.48,204.77,57.48,2.34,0,4.49,1.27,5.63,3.31,1.13,2.04,1.07,4.54-.17,6.53l-18.8,30.13ZM1012.46,236.92c16.18,9.42,35.62,24.69,47.25,47.66,7.97,15.75,11.2,33.04,9.68,51.65,2.01-4.26,3.87-8.82,5.54-13.73,9.52-27.81,22.81-44.26,39.5-48.9,9.98-2.78,19.09-.69,25.72,2.11-.93-6.86-3.51-15.89-10.2-23.38-9.14-10.23-23.9-15.42-43.85-15.42h-73.64Z"/>
</svg>