<?xml version="1.0" encoding="UTF-8"?>
<svg id="Camada_1" data-name="Camada 1" xmlns="http://www.w3.org/2000/svg" viewBox="0 0 1920 1080">
  <defs>
    <style>
      .cls-1 {
        fill: #ff6b35;
      }

      .cls-2 {
        fill: #fff;
      }

      .cls-3 {
        fill: #f7c59f;
      }
    </style>
  </defs>
  <rect class="cls-1" x="-1.2" y=".84" width="1922.4" height="1078.31"/>
  <g>
    <path class="cls-2" d="M557.96,611.84l60.94-161.38h31.27l60.71,161.38h-26.02l-11.87-32.41h-77.15l-11.87,32.41h-26.02ZM603.84,557.74h61.17l-30.59-84.23-30.59,84.23Z"/>
    <path class="cls-2" d="M721.16,611.84v-120.29h22.37l1.14,16.89c3.04-4.41,6.69-7.95,10.96-10.61,4.26-2.66,8.82-4.64,13.69-5.93,4.87-1.29,9.59-1.94,14.15-1.94,11.56,0,20.66,2.47,27.28,7.42,6.62,4.95,11.33,11.57,14.15,19.86,2.81,8.29,4.22,17.69,4.22,28.19v66.42h-23.74v-61.63c0-4.87-.31-9.66-.91-14.38-.61-4.71-1.87-8.94-3.77-12.67-1.91-3.73-4.6-6.69-8.1-8.9-3.5-2.2-8.22-3.31-14.15-3.31-7.3,0-13.47,1.98-18.49,5.93-5.02,3.96-8.83,9.28-11.41,15.98-2.59,6.7-3.88,14.23-3.88,22.6v56.38h-23.51Z"/>
    <path class="cls-2" d="M900.1,613.21c-12.02,0-21.95-2.7-29.79-8.1-7.84-5.4-13.7-12.74-17.58-22.03-3.88-9.28-5.82-19.71-5.82-31.27s1.98-22.25,5.93-31.61c3.96-9.36,9.96-16.74,18.03-22.14,8.06-5.4,18.26-8.1,30.59-8.1,4.57,0,9.17.53,13.81,1.6,4.64,1.07,8.98,2.7,13.01,4.91,4.03,2.21,7.49,5.14,10.39,8.79v-54.78h23.51v161.38h-22.6l-.91-16.43c-2.74,4.11-6.13,7.5-10.16,10.16-4.03,2.66-8.48,4.6-13.35,5.82-4.87,1.22-9.89,1.83-15.06,1.83ZM903.98,592.21c7.76,0,14.19-1.9,19.29-5.71,5.1-3.8,8.94-8.82,11.53-15.06,2.59-6.24,3.88-13.01,3.88-20.31s-1.26-14.19-3.77-20.2c-2.51-6.01-6.32-10.8-11.41-14.38-5.1-3.57-11.6-5.36-19.52-5.36s-14.76,1.87-19.63,5.59c-4.87,3.73-8.41,8.71-10.61,14.95-2.21,6.24-3.31,13.09-3.31,20.54,0,5.48.61,10.61,1.83,15.41,1.22,4.79,3.16,9.06,5.82,12.78,2.66,3.73,6.12,6.62,10.39,8.67,4.26,2.05,9.43,3.08,15.52,3.08Z"/>
    <path class="cls-2" d="M1038.88,613.21c-12.48,0-23.05-2.55-31.73-7.65-8.67-5.1-15.26-12.29-19.74-21.57-4.49-9.28-6.73-20.01-6.73-32.18s2.28-23.09,6.85-32.3c4.57-9.21,11.18-16.43,19.86-21.68,8.67-5.25,19.25-7.87,31.73-7.87s23.05,2.62,31.73,7.87c8.67,5.25,15.21,12.52,19.63,21.8,4.41,9.28,6.62,20.09,6.62,32.41s-2.25,22.67-6.73,31.96c-4.49,9.28-11.03,16.47-19.63,21.57-8.6,5.1-19.21,7.65-31.84,7.65ZM1038.88,592.21c8.22,0,14.87-1.83,19.97-5.48,5.1-3.65,8.86-8.56,11.3-14.72,2.43-6.16,3.65-12.9,3.65-20.2s-1.22-14-3.65-20.09c-2.44-6.08-6.2-10.99-11.3-14.72-5.1-3.73-11.76-5.59-19.97-5.59s-14.69,1.87-19.86,5.59c-5.17,3.73-8.94,8.64-11.3,14.72-2.36,6.09-3.54,12.78-3.54,20.09s1.18,14.23,3.54,20.31c2.36,6.09,6.12,10.96,11.3,14.61,5.17,3.65,11.79,5.48,19.86,5.48Z"/>
    <path class="cls-2" d="M1115.57,611.84v-120.29h22.14l1.14,17.35c3.04-4.71,6.54-8.45,10.5-11.18,3.96-2.74,8.29-4.71,13.01-5.93,4.71-1.22,9.66-1.83,14.84-1.83h7.3v22.6h-7.3c-8.67,0-15.86,1.75-21.57,5.25-5.71,3.5-9.89,8.37-12.55,14.61-2.66,6.24-4,13.39-4,21.46v57.98h-23.51Z"/>
    <path class="cls-2" d="M1208.24,475.57c-4.56,0-8.26-1.4-11.07-4.22-2.82-2.81-4.22-6.43-4.22-10.84s1.44-8.02,4.34-10.84c2.89-2.81,6.54-4.22,10.96-4.22,4.11,0,7.72,1.41,10.84,4.22,3.12,2.82,4.68,6.43,4.68,10.84s-1.48,8.03-4.45,10.84c-2.97,2.82-6.66,4.22-11.07,4.22ZM1196.6,611.84v-120.29h23.51v120.29h-23.51Z"/>
    <path class="cls-2" d="M1243.39,611.84v-120.29h22.37l1.14,16.89c3.04-4.41,6.69-7.95,10.96-10.61,4.26-2.66,8.82-4.64,13.69-5.93,4.87-1.29,9.59-1.94,14.15-1.94,11.56,0,20.66,2.47,27.28,7.42,6.62,4.95,11.33,11.57,14.15,19.86,2.81,8.29,4.22,17.69,4.22,28.19v66.42h-23.74v-61.63c0-4.87-.31-9.66-.91-14.38-.61-4.71-1.87-8.94-3.77-12.67-1.91-3.73-4.6-6.69-8.1-8.9-3.5-2.2-8.22-3.31-14.15-3.31-7.3,0-13.47,1.98-18.49,5.93-5.02,3.96-8.83,9.28-11.41,15.98-2.59,6.7-3.88,14.23-3.88,22.6v56.38h-23.51Z"/>
    <path class="cls-2" d="M1373.72,611.84v-161.38h23.51v57.98c3.2-4.11,6.88-7.53,11.07-10.27,4.18-2.74,8.71-4.79,13.58-6.16,4.87-1.37,9.74-2.05,14.61-2.05,11.56,0,20.62,2.47,27.16,7.42,6.54,4.95,11.18,11.61,13.92,19.97,2.74,8.37,4.11,17.8,4.11,28.3v66.19h-23.74v-60.71c0-4.87-.34-9.66-1.03-14.38-.68-4.71-1.94-9.02-3.77-12.9-1.83-3.88-4.6-7-8.33-9.36-3.73-2.36-8.71-3.54-14.95-3.54s-11,1.29-15.18,3.88c-4.19,2.59-7.53,6.05-10.04,10.39s-4.38,9.06-5.59,14.15c-1.22,5.1-1.83,10.16-1.83,15.18v57.29h-23.51Z"/>
    <path class="cls-2" d="M1542.4,613.21c-5.48,0-10.77-.72-15.86-2.17-5.1-1.44-9.63-3.65-13.58-6.62-3.96-2.97-7.12-6.69-9.47-11.18-2.36-4.49-3.54-9.78-3.54-15.86,0-7.3,1.41-13.35,4.22-18.15,2.81-4.79,6.58-8.52,11.3-11.18,4.71-2.66,10.16-4.56,16.32-5.71,6.16-1.14,12.59-1.71,19.29-1.71h29.44c0-5.93-.91-11.15-2.74-15.64-1.83-4.49-4.68-7.99-8.56-10.5-3.88-2.51-9.02-3.77-15.41-3.77-3.81,0-7.42.42-10.84,1.26-3.42.84-6.36,2.17-8.79,3.99-2.44,1.83-4.11,4.26-5.02,7.3h-24.65c.91-5.78,2.97-10.76,6.16-14.95,3.2-4.18,7.15-7.65,11.87-10.39,4.71-2.74,9.78-4.75,15.18-6.05,5.4-1.29,10.92-1.94,16.55-1.94,17.35,0,29.86,5.06,37.55,15.18,7.68,10.12,11.53,24.01,11.53,41.66v65.05h-20.31l-.91-15.29c-3.5,4.72-7.65,8.3-12.44,10.73-4.79,2.44-9.55,4.03-14.27,4.79-4.72.76-9.06,1.14-13.01,1.14ZM1546.05,593.35c6.85,0,12.86-1.18,18.03-3.54,5.17-2.36,9.21-5.78,12.1-10.27,2.89-4.49,4.34-9.78,4.34-15.86v-5.02h-21.46c-4.42,0-8.71.11-12.9.34-4.19.23-7.99.84-11.41,1.83-3.42.99-6.16,2.62-8.22,4.91-2.05,2.28-3.08,5.56-3.08,9.82s1.06,7.46,3.2,10.04c2.13,2.59,4.94,4.53,8.45,5.82,3.5,1.29,7.15,1.94,10.96,1.94Z"/>
  </g>
  <g>
    <path class="cls-2" d="M1023.23,699.92l-18.23-48.64h6.54l16.03,43.48,16.03-43.48h6.47l-18.16,48.64h-8.67Z"/>
    <path class="cls-2" d="M1069.74,700.33c-3.81,0-7-.79-9.56-2.37-2.57-1.58-4.48-3.77-5.75-6.57-1.26-2.8-1.89-5.98-1.89-9.56s.64-6.82,1.93-9.6c1.28-2.77,3.21-4.96,5.78-6.57,2.57-1.6,5.78-2.41,9.63-2.41s6.98.8,9.53,2.41c2.55,1.61,4.45,3.8,5.71,6.57,1.26,2.78,1.89,5.97,1.89,9.6s-.64,6.77-1.93,9.56c-1.28,2.8-3.2,4.99-5.74,6.57-2.55,1.58-5.74,2.37-9.6,2.37ZM1069.74,695.17c2.66,0,4.83-.6,6.5-1.79,1.67-1.19,2.91-2.8,3.71-4.82.8-2.02,1.2-4.27,1.2-6.74s-.4-4.72-1.2-6.74c-.8-2.02-2.04-3.62-3.71-4.82-1.67-1.19-3.84-1.79-6.5-1.79s-4.76.6-6.43,1.79c-1.67,1.19-2.91,2.8-3.71,4.82-.8,2.02-1.2,4.26-1.2,6.74s.4,4.72,1.2,6.74c.8,2.02,2.04,3.62,3.71,4.82,1.67,1.19,3.82,1.79,6.43,1.79Z"/>
    <path class="cls-2" d="M1108.81,700.33c-3.85,0-7.04-.79-9.56-2.37-2.52-1.58-4.4-3.77-5.64-6.57-1.24-2.8-1.86-5.98-1.86-9.56s.65-6.82,1.96-9.6c1.31-2.77,3.22-4.96,5.74-6.57,2.52-1.6,5.62-2.41,9.29-2.41,2.84,0,5.29.54,7.33,1.62,2.04,1.08,3.73,2.51,5.06,4.3,1.33,1.79,2.29,3.75,2.89,5.88s.85,4.28.76,6.43c-.05.41-.08.83-.1,1.24-.02.41-.06.83-.1,1.24h-26.9c.18,2.11.71,4.01,1.58,5.71.87,1.7,2.11,3.04,3.71,4.02,1.6.99,3.6,1.48,5.99,1.48,1.19,0,2.4-.15,3.61-.45,1.21-.3,2.32-.81,3.3-1.55.99-.73,1.68-1.72,2.1-2.96h5.99c-.55,2.34-1.58,4.25-3.1,5.74-1.51,1.49-3.33,2.59-5.43,3.3-2.11.71-4.31,1.07-6.6,1.07ZM1097.81,678.87h20.98c-.05-2.06-.5-3.88-1.38-5.43-.87-1.56-2.05-2.77-3.54-3.65-1.49-.87-3.27-1.31-5.33-1.31-2.25,0-4.14.48-5.68,1.44-1.54.96-2.72,2.23-3.54,3.78-.83,1.56-1.33,3.28-1.51,5.16Z"/>
    <path class="cls-2" d="M1163.16,700.33c-3.81,0-6.96-.79-9.46-2.37-2.5-1.58-4.36-3.77-5.57-6.57-1.22-2.8-1.82-5.96-1.82-9.49s.63-6.57,1.89-9.39c1.26-2.82,3.19-5.07,5.78-6.74,2.59-1.67,5.88-2.51,9.87-2.51,2.48,0,4.69.41,6.64,1.24,1.95.83,3.57,2.03,4.85,3.61s2.18,3.57,2.68,5.95h-5.99c-.69-2.02-1.78-3.45-3.27-4.3-1.49-.85-3.25-1.27-5.26-1.27-2.75,0-4.95.64-6.6,1.93-1.65,1.29-2.86,2.95-3.61,4.99s-1.13,4.21-1.13,6.5.39,4.59,1.17,6.6c.78,2.02,1.99,3.63,3.65,4.85,1.65,1.22,3.78,1.82,6.4,1.82,1.93,0,3.75-.41,5.47-1.24,1.72-.83,2.86-2.29,3.41-4.4h6.05c-.46,2.48-1.43,4.52-2.92,6.12-1.49,1.61-3.3,2.79-5.44,3.54-2.13.76-4.39,1.13-6.78,1.13Z"/>
    <path class="cls-2" d="M1199.69,700.33c-3.85,0-7.04-.79-9.56-2.37-2.52-1.58-4.4-3.77-5.64-6.57-1.24-2.8-1.86-5.98-1.86-9.56s.65-6.82,1.96-9.6c1.31-2.77,3.22-4.96,5.74-6.57,2.52-1.6,5.62-2.41,9.29-2.41,2.84,0,5.29.54,7.33,1.62,2.04,1.08,3.73,2.51,5.06,4.3,1.33,1.79,2.29,3.75,2.89,5.88s.85,4.28.76,6.43c-.05.41-.08.83-.1,1.24-.02.41-.06.83-.1,1.24h-26.9c.18,2.11.71,4.01,1.58,5.71.87,1.7,2.11,3.04,3.71,4.02,1.6.99,3.6,1.48,5.99,1.48,1.19,0,2.4-.15,3.61-.45,1.21-.3,2.32-.81,3.3-1.55.99-.73,1.68-1.72,2.1-2.96h5.99c-.55,2.34-1.58,4.25-3.1,5.74-1.51,1.49-3.33,2.59-5.43,3.3-2.11.71-4.31,1.07-6.6,1.07ZM1188.69,678.87h20.98c-.05-2.06-.5-3.88-1.38-5.43-.87-1.56-2.05-2.77-3.54-3.65-1.49-.87-3.27-1.31-5.33-1.31-2.25,0-4.14.48-5.68,1.44-1.54.96-2.72,2.23-3.54,3.78-.83,1.56-1.33,3.28-1.51,5.16Z"/>
    <path class="cls-2" d="M1221.71,699.92v-36.26h5.64l.27,5.64c.92-1.42,1.98-2.57,3.2-3.44,1.21-.87,2.57-1.52,4.06-1.96,1.49-.44,3.11-.65,4.85-.65h1.86v5.5h-2.13c-2.84,0-5.15.61-6.91,1.82-1.77,1.22-3.04,2.84-3.82,4.88-.78,2.04-1.17,4.3-1.17,6.78v17.68h-5.85Z"/>
    <path class="cls-2" d="M1260.37,699.92c-2.75,0-4.96-.41-6.64-1.24-1.67-.83-2.89-2.11-3.65-3.85s-1.14-3.94-1.14-6.6v-19.4h-5.92v-5.16h5.92v-10.8h5.85v10.8h9.7v5.16h-9.7v18.78c0,2.48.45,4.3,1.34,5.47.89,1.17,2.72,1.75,5.47,1.75h2.68v5.09h-3.92Z"/>
    <path class="cls-2" d="M1285.2,700.33c-3.81,0-7-.79-9.56-2.37-2.57-1.58-4.48-3.77-5.75-6.57-1.26-2.8-1.89-5.98-1.89-9.56s.64-6.82,1.93-9.6c1.28-2.77,3.21-4.96,5.78-6.57,2.57-1.6,5.78-2.41,9.63-2.41s6.98.8,9.53,2.41c2.55,1.61,4.45,3.8,5.71,6.57,1.26,2.78,1.89,5.97,1.89,9.6s-.64,6.77-1.93,9.56c-1.28,2.8-3.2,4.99-5.74,6.57-2.55,1.58-5.74,2.37-9.6,2.37ZM1285.2,695.17c2.66,0,4.83-.6,6.5-1.79,1.67-1.19,2.91-2.8,3.71-4.82.8-2.02,1.2-4.27,1.2-6.74s-.4-4.72-1.2-6.74c-.8-2.02-2.04-3.62-3.71-4.82-1.67-1.19-3.84-1.79-6.5-1.79s-4.76.6-6.43,1.79c-1.67,1.19-2.91,2.8-3.71,4.82-.8,2.02-1.2,4.26-1.2,6.74s.4,4.72,1.2,6.74c.8,2.02,2.04,3.62,3.71,4.82,1.67,1.19,3.82,1.79,6.43,1.79Z"/>
    <path class="cls-2" d="M1312.72,700.47c-1.19,0-2.18-.39-2.96-1.17-.78-.78-1.17-1.77-1.17-2.96s.39-2.18,1.17-2.96c.78-.78,1.76-1.17,2.96-1.17s2.18.39,2.96,1.17c.78.78,1.17,1.77,1.17,2.96s-.39,2.18-1.17,2.96c-.78.78-1.77,1.17-2.96,1.17Z"/>
    <path class="cls-2" d="M1355.79,699.92l-18.23-48.64h6.54l16.03,43.48,16.03-43.48h6.47l-18.16,48.64h-8.67Z"/>
    <path class="cls-2" d="M1402.29,700.33c-3.81,0-7-.79-9.56-2.37-2.57-1.58-4.48-3.77-5.75-6.57-1.26-2.8-1.89-5.98-1.89-9.56s.64-6.82,1.93-9.6c1.28-2.77,3.21-4.96,5.78-6.57,2.57-1.6,5.78-2.41,9.63-2.41s6.98.8,9.53,2.41c2.55,1.61,4.45,3.8,5.71,6.57,1.26,2.78,1.89,5.97,1.89,9.6s-.64,6.77-1.93,9.56c-1.28,2.8-3.2,4.99-5.74,6.57-2.55,1.58-5.74,2.37-9.6,2.37ZM1402.29,695.17c2.66,0,4.83-.6,6.5-1.79,1.67-1.19,2.91-2.8,3.71-4.82.8-2.02,1.2-4.27,1.2-6.74s-.4-4.72-1.2-6.74c-.8-2.02-2.04-3.62-3.71-4.82-1.67-1.19-3.84-1.79-6.5-1.79s-4.76.6-6.43,1.79c-1.67,1.19-2.91,2.8-3.71,4.82-.8,2.02-1.2,4.26-1.2,6.74s.4,4.72,1.2,6.74c.8,2.02,2.04,3.62,3.71,4.82,1.67,1.19,3.82,1.79,6.43,1.79Z"/>
    <path class="cls-2" d="M1441.37,700.33c-3.85,0-7.04-.79-9.56-2.37-2.52-1.58-4.4-3.77-5.64-6.57-1.24-2.8-1.86-5.98-1.86-9.56s.65-6.82,1.96-9.6c1.31-2.77,3.22-4.96,5.74-6.57,2.52-1.6,5.62-2.41,9.29-2.41,2.84,0,5.29.54,7.33,1.62,2.04,1.08,3.73,2.51,5.06,4.3,1.33,1.79,2.29,3.75,2.89,5.88s.85,4.28.76,6.43c-.05.41-.08.83-.1,1.24-.02.41-.06.83-.1,1.24h-26.9c.18,2.11.71,4.01,1.58,5.71.87,1.7,2.11,3.04,3.71,4.02,1.6.99,3.6,1.48,5.99,1.48,1.19,0,2.4-.15,3.61-.45,1.21-.3,2.32-.81,3.3-1.55.99-.73,1.68-1.72,2.1-2.96h5.99c-.55,2.34-1.58,4.25-3.1,5.74-1.51,1.49-3.33,2.59-5.43,3.3-2.11.71-4.31,1.07-6.6,1.07ZM1430.36,678.87h20.98c-.05-2.06-.5-3.88-1.38-5.43-.87-1.56-2.05-2.77-3.54-3.65-1.49-.87-3.27-1.31-5.33-1.31-2.25,0-4.14.48-5.68,1.44-1.54.96-2.72,2.23-3.54,3.78-.83,1.56-1.33,3.28-1.51,5.16Z"/>
    <path class="cls-2" d="M1491.86,700.33c-1.65,0-3.25-.22-4.78-.65-1.54-.44-2.91-1.1-4.13-2-1.22-.89-2.18-2.02-2.89-3.37-.71-1.35-1.07-2.92-1.07-4.71,0-2.06.38-3.81,1.13-5.23.76-1.42,1.78-2.55,3.06-3.37,1.28-.83,2.77-1.42,4.47-1.79,1.7-.37,3.46-.55,5.3-.55h10.66c0-2.06-.29-3.85-.86-5.37-.57-1.51-1.5-2.69-2.79-3.54-1.28-.85-2.98-1.27-5.09-1.27-1.28,0-2.48.14-3.58.41-1.1.28-2.04.71-2.82,1.31-.78.6-1.35,1.4-1.72,2.41h-6.26c.32-1.65.95-3.06,1.89-4.23.94-1.17,2.09-2.13,3.44-2.89s2.81-1.32,4.37-1.69c1.56-.37,3.12-.55,4.68-.55,5.23,0,8.94,1.54,11.14,4.61,2.2,3.07,3.3,7.22,3.3,12.45v19.61h-4.88l-.34-4.61c-1.01,1.38-2.23,2.43-3.65,3.16-1.42.73-2.88,1.23-4.37,1.48-1.49.25-2.9.38-4.23.38ZM1492.41,695.17c2.29,0,4.28-.38,5.95-1.13,1.67-.76,2.97-1.87,3.89-3.34.92-1.47,1.38-3.26,1.38-5.37v-1.79h-6.4c-1.51,0-3,.02-4.47.07-1.47.05-2.8.23-3.99.55-1.19.32-2.14.87-2.85,1.65-.71.78-1.07,1.9-1.07,3.37,0,1.38.35,2.5,1.07,3.37.71.87,1.65,1.53,2.82,1.96,1.17.44,2.4.65,3.68.65Z"/>
    <path class="cls-2" d="M1516.7,699.92v-48.64h5.85v48.64h-5.85Z"/>
    <path class="cls-2" d="M1544.76,699.92c-2.75,0-4.96-.41-6.64-1.24-1.67-.83-2.89-2.11-3.65-3.85s-1.14-3.94-1.14-6.6v-19.4h-5.92v-5.16h5.92v-10.8h5.85v10.8h9.7v5.16h-9.7v18.78c0,2.48.45,4.3,1.34,5.47.89,1.17,2.72,1.75,5.47,1.75h2.68v5.09h-3.92Z"/>
    <path class="cls-2" d="M1569.6,700.33c-3.81,0-7-.79-9.56-2.37-2.57-1.58-4.48-3.77-5.75-6.57-1.26-2.8-1.89-5.98-1.89-9.56s.64-6.82,1.93-9.6c1.28-2.77,3.21-4.96,5.78-6.57,2.57-1.6,5.78-2.41,9.63-2.41s6.98.8,9.53,2.41c2.55,1.61,4.45,3.8,5.71,6.57,1.26,2.78,1.89,5.97,1.89,9.6s-.64,6.77-1.93,9.56c-1.28,2.8-3.2,4.99-5.74,6.57-2.55,1.58-5.74,2.37-9.6,2.37ZM1569.6,695.17c2.66,0,4.83-.6,6.5-1.79,1.67-1.19,2.91-2.8,3.71-4.82.8-2.02,1.2-4.27,1.2-6.74s-.4-4.72-1.2-6.74c-.8-2.02-2.04-3.62-3.71-4.82-1.67-1.19-3.84-1.79-6.5-1.79s-4.76.6-6.43,1.79c-1.67,1.19-2.91,2.8-3.71,4.82-.8,2.02-1.2,4.26-1.2,6.74s.4,4.72,1.2,6.74c.8,2.02,2.04,3.62,3.71,4.82,1.67,1.19,3.82,1.79,6.43,1.79Z"/>
    <path class="cls-2" d="M1597.12,700.47c-1.19,0-2.18-.39-2.96-1.17-.78-.78-1.17-1.77-1.17-2.96s.39-2.18,1.17-2.96c.78-.78,1.76-1.17,2.96-1.17s2.18.39,2.96,1.17c.78.78,1.17,1.77,1.17,2.96s-.39,2.18-1.17,2.96c-.78.78-1.77,1.17-2.96,1.17Z"/>
  </g>
  <path class="cls-3" d="M318.18,675.74c-1.03,0-2.07-.28-3-.86-2.66-1.66-3.47-5.16-1.81-7.82l.07-.11c22.02-35.33,28.27-62.11,18.57-79.59-15.48-27.9-69.64-31.48-115.1-31.48-3.13,0-5.68-2.54-5.68-5.68s2.54-5.68,5.68-5.68h172.91l14.96-23.98c-162.06-2.44-185.06-63.15-185.97-65.78-.6-1.74-.33-3.66.74-5.15,1.06-1.5,2.79-2.39,4.62-2.39h232.35c-18.75-29.99-55.63-41.57-56.03-41.69-2.69-.82-4.37-3.49-3.95-6.27.41-2.78,2.8-4.84,5.61-4.84h91.02c21.04,0,36.94,5.89,47.24,17.51,14.51,16.36,12.13,37.83,12.02,38.73-.25,2.07-1.61,3.84-3.55,4.6-1.94.77-4.14.41-5.74-.94-.09-.07-10.49-8.51-22.04-5.23-10.71,3.03-20.06,15.42-27.05,35.84-11.86,34.65-33.55,52.08-49.67,60.6-17.55,9.28-32.29,10.28-32.91,10.32-.12,0-.23.01-.35.01h-15l-73.07,117.11s-.04.06-.05.08h0c-1.08,1.72-2.93,2.67-4.82,2.67ZM308.36,555.88c20,7.25,28.58,16.96,33.58,25.97,4.86,8.76,6.75,18.86,5.63,30.4l35.18-56.38h-74.39ZM403.2,544.53h7.72c2.62-.2,28.65-2.78,50.45-25.84,7.67-22.29,7.98-42.47.93-60.11h-227.95c12.58,15.75,54.68,50.7,180.62,50.7,2.06,0,3.96,1.12,4.96,2.92,1,1.8.94,4.01-.15,5.76l-16.58,26.57ZM428.21,405.79c14.27,8.31,31.42,21.78,41.67,42.04,7.03,13.9,9.88,29.14,8.54,45.56,1.77-3.76,3.41-7.78,4.89-12.11,8.4-24.53,20.12-39.04,34.84-43.13,8.81-2.45,16.83-.61,22.69,1.86-.82-6.05-3.09-14.01-8.99-20.62-8.06-9.03-21.08-13.6-38.68-13.6h-64.96Z"/>
</svg>