<?xml version="1.0" encoding="UTF-8"?>
<svg id="Camada_1" data-name="Camada 1" xmlns="http://www.w3.org/2000/svg" viewBox="0 0 1080 1080">
  <defs>
    <style>
      .cls-1 {
        fill: #ff6b35;
      }

      .cls-2 {
        fill: #f7c59f;
      }
    </style>
  </defs>
  <rect class="cls-2" width="1080" height="1080"/>
  <path class="cls-1" d="M406.79,874.56c-2.2,0-4.44-.6-6.44-1.85-5.71-3.56-7.45-11.08-3.89-16.79l.15-.24c47.3-75.88,60.72-133.4,39.89-170.95-33.25-59.93-149.58-67.62-247.22-67.62-6.73,0-12.19-5.46-12.19-12.19s5.46-12.19,12.19-12.19h371.4l32.14-51.51c-348.1-5.25-397.49-135.63-399.45-141.29-1.3-3.73-.71-7.85,1.58-11.07,2.29-3.22,5.99-5.13,9.93-5.13h499.06c-40.28-64.41-119.5-89.29-120.34-89.54-5.77-1.77-9.39-7.49-8.49-13.46.89-5.97,6.01-10.39,12.05-10.39h195.5c45.2,0,79.34,12.65,101.48,37.6,31.17,35.13,26.05,81.25,25.81,83.2-.53,4.45-3.46,8.24-7.63,9.89-4.16,1.65-8.89.88-12.32-2.01-.19-.15-22.53-18.28-47.35-11.24-22.99,6.5-43.08,33.12-58.1,76.99-25.48,74.42-72.07,111.86-106.68,130.16-37.69,19.93-69.36,22.08-70.69,22.16-.25.02-.5.02-.75.02h-32.22l-156.95,251.53c-.03.06-.08.12-.11.18h0c-2.31,3.7-6.29,5.74-10.35,5.74ZM385.7,617.11c42.96,15.58,61.38,36.43,72.12,55.79,10.44,18.83,14.49,40.51,12.09,65.3l75.56-121.09h-159.77ZM589.41,592.73h16.58c5.63-.44,61.53-5.96,108.36-55.51,16.48-47.87,17.15-91.22,2-129.1H226.74c27.01,33.83,117.45,108.89,387.95,108.89,4.43,0,8.51,2.4,10.66,6.28,2.15,3.87,2.02,8.61-.32,12.37l-35.62,57.08ZM643.13,294.72c30.65,17.85,67.49,46.78,89.51,90.3,15.1,29.85,21.22,62.59,18.34,97.85,3.8-8.07,7.32-16.72,10.5-26.01,18.03-52.69,43.21-83.86,74.84-92.64,18.91-5.26,36.16-1.31,48.73,4-1.77-13-6.65-30.1-19.32-44.29-17.32-19.39-45.27-29.22-83.08-29.22h-139.52Z"/>
</svg>