<?xml version="1.0" encoding="UTF-8"?>
<svg id="Camada_1" data-name="Camada 1" xmlns="http://www.w3.org/2000/svg" xmlns:xlink="http://www.w3.org/1999/xlink" viewBox="0 0 1920 1080">
  <defs>
    <style>
      .cls-1 {
        fill: none;
      }

      .cls-2 {
        fill: #092473;
      }

      .cls-3 {
        fill: #ff6b35;
      }

      .cls-4 {
        clip-path: url(#clippath-1);
      }

      .cls-5 {
        clip-path: url(#clippath-3);
      }

      .cls-6 {
        clip-path: url(#clippath-4);
      }

      .cls-7 {
        clip-path: url(#clippath-2);
      }

      .cls-8 {
        fill: #fff;
      }

      .cls-9 {
        fill: #3870a4;
      }

      .cls-10 {
        clip-path: url(#clippath);
      }
    </style>
    <clipPath id="clippath">
      <rect class="cls-1" y="-1140" width="1940" height="1080"/>
    </clipPath>
    <clipPath id="clippath-1">
      <rect class="cls-1" x="1980" y="-1140" width="1940" height="1080"/>
    </clipPath>
    <clipPath id="clippath-2">
      <rect class="cls-1" x="-1990" width="1940" height="1080"/>
    </clipPath>
    <clipPath id="clippath-3">
      <rect class="cls-1" x="-10" width="1940" height="1080"/>
    </clipPath>
    <clipPath id="clippath-4">
      <rect class="cls-1" x="1970" width="1940" height="1080"/>
    </clipPath>
  </defs>
  <g class="cls-10">
    <path class="cls-9" d="M540.37,410.05c-6.16,0-12.39-1.67-17.99-5.17-15.95-9.95-20.81-30.94-10.86-46.89l.41-.66c132.06-211.87,169.54-372.46,111.37-477.31-92.82-167.34-417.65-188.79-690.26-188.79-18.8,0-34.03-15.24-34.03-34.03s15.24-34.03,34.03-34.03H970.02l89.74-143.81C87.84-535.31-50.05-899.35-55.54-915.15c-3.62-10.41-1.98-21.92,4.41-30.9,6.38-8.98,16.71-14.31,27.73-14.31h1393.41c-112.47-179.83-333.65-249.29-336-250.01-16.11-4.93-26.22-20.92-23.72-37.59,2.49-16.67,16.78-29,33.64-29h545.85c126.2,0,221.52,35.32,283.33,104.99,87.03,98.09,72.72,226.85,72.07,232.29-1.49,12.41-9.67,23.01-21.3,27.6-11.61,4.6-24.82,2.45-34.41-5.61-.52-.41-62.91-51.03-132.19-31.38-64.2,18.15-120.29,92.48-162.21,214.96-71.13,207.79-201.23,312.32-297.86,363.42-105.23,55.65-193.67,61.64-197.38,61.86-.69.05-1.4.07-2.09.07h-89.97l-438.21,702.3c-.09.16-.21.34-.31.5h0c-6.46,10.34-17.55,16.03-28.9,16.03ZM481.46-308.77c119.96,43.51,171.37,101.71,201.36,155.77,29.16,52.56,40.46,113.11,33.77,182.33l210.96-338.1h-446.1ZM1050.25-376.84h46.31c15.73-1.22,171.8-16.65,302.54-154.99,46.03-133.67,47.87-254.7,5.57-360.46H37.63c75.42,94.47,327.92,304.03,1083.19,304.03,12.36,0,23.76,6.71,29.77,17.52,6,10.82,5.65,24.04-.89,34.53l-99.45,159.37ZM1200.23-1208.9c85.58,49.84,188.43,130.6,249.92,252.13,42.17,83.34,59.24,174.76,51.2,273.21,10.62-22.52,20.45-46.67,29.33-72.61,50.35-147.12,120.65-234.14,208.96-258.66,52.81-14.68,100.96-3.65,136.05,11.16-4.95-36.29-18.56-84.04-53.94-123.65-48.37-54.14-126.41-81.58-231.96-81.58h-389.55Z"/>
  </g>
  <g class="cls-4">
    <path class="cls-3" d="M2520.37,410.05c-6.16,0-12.39-1.67-17.99-5.17-15.95-9.95-20.81-30.94-10.86-46.89l.41-.66c132.06-211.87,169.54-372.46,111.37-477.31-92.82-167.34-417.65-188.79-690.26-188.79-18.8,0-34.03-15.24-34.03-34.03s15.24-34.03,34.03-34.03h1036.98l89.74-143.81c-971.92-14.66-1109.8-378.69-1115.3-394.49-3.62-10.41-1.98-21.92,4.41-30.9,6.38-8.98,16.71-14.31,27.73-14.31h1393.41c-112.47-179.83-333.65-249.29-336-250.01-16.11-4.93-26.22-20.92-23.72-37.59,2.49-16.67,16.78-29,33.64-29h545.85c126.2,0,221.52,35.32,283.33,104.99,87.03,98.09,72.72,226.85,72.07,232.29-1.49,12.41-9.67,23.01-21.3,27.6-11.61,4.6-24.82,2.45-34.41-5.61-.52-.41-62.91-51.03-132.19-31.38-64.2,18.15-120.29,92.48-162.21,214.96-71.13,207.79-201.23,312.32-297.86,363.42-105.23,55.65-193.67,61.64-197.38,61.86-.69.05-1.4.07-2.09.07h-89.97l-438.21,702.3c-.09.16-.21.34-.31.5h0c-6.46,10.34-17.55,16.03-28.9,16.03ZM2461.46-308.77c119.96,43.51,171.37,101.71,201.36,155.77,29.16,52.56,40.46,113.11,33.77,182.33l210.96-338.1h-446.1ZM3030.25-376.84h46.31c15.73-1.22,171.8-16.65,302.54-154.99,46.03-133.67,47.87-254.7,5.57-360.46h-1367.03c75.42,94.47,327.92,304.03,1083.19,304.03,12.36,0,23.76,6.71,29.77,17.52,6,10.82,5.65,24.04-.89,34.53l-99.45,159.37ZM3180.23-1208.9c85.58,49.84,188.43,130.6,249.92,252.13,42.17,83.34,59.24,174.76,51.2,273.21,10.62-22.52,20.45-46.67,29.33-72.61,50.35-147.12,120.65-234.14,208.96-258.66,52.81-14.68,100.96-3.65,136.05,11.16-4.95-36.29-18.56-84.04-53.94-123.65-48.37-54.14-126.41-81.58-231.96-81.58h-389.55Z"/>
  </g>
  <g class="cls-7">
    <path class="cls-2" d="M-72.72-384.44c5.57,0,11.21,1.51,16.28,4.67,14.44,9.01,18.83,28,9.83,42.43l-.37.6C-166.49-145.01-200.4.31-147.77,95.19-63.77,246.62,230.17,266.04,476.86,266.04c17.01,0,30.8,13.79,30.8,30.8s-13.79,30.8-30.8,30.8H-461.52l-81.21,130.14c879.51,13.26,1004.29,342.69,1009.25,356.98,3.27,9.42,1.79,19.84-3.99,27.97-5.77,8.13-15.12,12.95-25.1,12.95H-823.49c101.78,162.73,301.93,225.59,304.06,226.24,14.58,4.46,23.72,18.93,21.46,34.02-2.25,15.08-15.18,26.25-30.44,26.25h-493.95c-114.2,0-200.46-31.97-256.39-95.01-78.75-88.76-65.81-205.28-65.22-210.2,1.35-11.23,8.75-20.83,19.27-24.98,10.5-4.16,22.46-2.21,31.14,5.08.47.37,56.93,46.17,119.62,28.4,58.1-16.42,108.85-83.69,146.79-194.52,64.36-188.03,182.1-282.62,269.54-328.87,95.22-50.36,175.25-55.77,178.61-55.98.63-.04,1.26-.06,1.89-.06h81.41L-99.15-369.48c.08-.14.19-.31.28-.45h0c5.85-9.36,15.88-14.5,26.16-14.5ZM-19.41,266.04c-108.55-39.37-155.08-92.04-182.22-140.96-26.38-47.56-36.61-102.36-30.56-165l-190.91,305.96H-19.41ZM-534.12,327.64h-41.9c-14.23,1.1-155.46,15.06-273.77,140.25-41.65,120.96-43.32,230.48-5.04,326.19H382.22c-68.25-85.49-296.74-275.12-980.2-275.12-11.19,0-21.5-6.07-26.94-15.86-5.43-9.79-5.11-21.75.81-31.24l89.99-144.22ZM-669.84,1080.58c-77.44-45.1-170.51-118.18-226.16-228.16-38.16-75.42-53.61-158.15-46.33-247.23-9.61,20.38-18.5,42.23-26.54,65.71-45.56,133.13-109.18,211.88-189.09,234.07-47.79,13.29-91.36,3.3-123.11-10.1,4.48,32.84,16.8,76.05,48.81,111.89,43.77,48.99,114.39,73.83,209.9,73.83h352.52Z"/>
  </g>
  <rect class="cls-8" x="-10" width="1940" height="1080"/>
  <g class="cls-5">
    <path class="cls-9" d="M-18.4,1439.33c-5.57,0-11.21-1.51-16.28-4.67-14.44-9.01-18.83-28-9.83-42.43l.37-.6c119.5-191.73,153.42-337.05,100.78-431.93-84-151.43-377.94-170.84-624.63-170.84-17.01,0-30.8-13.79-30.8-30.8s13.79-30.8,30.8-30.8H370.4l81.21-130.14c-879.51-13.26-1004.29-342.69-1009.25-356.98-3.27-9.42-1.79-19.84,3.99-27.97,5.77-8.13,15.12-12.95,25.1-12.95H732.38C630.6,36.48,430.45-26.38,428.32-27.03c-14.58-4.46-23.72-18.93-21.46-34.02,2.25-15.08,15.18-26.25,30.44-26.25h493.95c114.2,0,200.46,31.97,256.39,95.01,78.75,88.76,65.81,205.28,65.22,210.2-1.35,11.23-8.75,20.83-19.27,24.98-10.5,4.16-22.46,2.21-31.14-5.08-.47-.37-56.93-46.17-119.62-28.4-58.1,16.42-108.85,83.69-146.79,194.52-64.36,188.03-182.1,282.62-269.54,328.87-95.22,50.36-175.25,55.77-178.61,55.98-.63.04-1.26.06-1.89.06h-81.41L8.04,1424.37c-.08.14-.19.31-.28.45h0c-5.85,9.36-15.88,14.5-26.16,14.5ZM-71.7,788.85c108.55,39.37,155.08,92.04,182.22,140.96,26.38,47.56,36.61,102.36,30.56,165l190.91-305.96H-71.7ZM443.01,727.25h41.9c14.23-1.1,155.46-15.06,273.77-140.25,41.65-120.96,43.32-230.48,5.04-326.19H-473.33c68.25,85.49,296.74,275.12,980.2,275.12,11.19,0,21.5,6.07,26.94,15.86,5.43,9.79,5.11,21.75-.81,31.24l-89.99,144.22ZM578.73-25.69c77.44,45.1,170.51,118.18,226.16,228.16,38.16,75.42,53.61,158.15,46.33,247.23,9.61-20.38,18.5-42.23,26.54-65.71,45.56-133.13,109.18-211.88,189.09-234.07,47.79-13.29,91.36-3.3,123.11,10.1-4.48-32.84-16.8-76.05-48.81-111.89-43.77-48.99-114.39-73.83-209.9-73.83h-352.52Z"/>
    <path class="cls-9" d="M1907.28-384.44c5.57,0,11.21,1.51,16.28,4.67,14.44,9.01,18.83,28,9.83,42.43l-.37.6C1813.51-145.01,1779.6.31,1832.23,95.19c84,151.43,377.94,170.84,624.63,170.84,17.01,0,30.8,13.79,30.8,30.8s-13.79,30.8-30.8,30.8h-938.38l-81.21,130.14c879.51,13.26,1004.29,342.69,1009.25,356.98,3.27,9.42,1.79,19.84-3.99,27.97-5.77,8.13-15.12,12.95-25.1,12.95h-1260.93c101.78,162.73,301.93,225.59,304.06,226.24,14.58,4.46,23.72,18.93,21.46,34.02-2.25,15.08-15.18,26.25-30.44,26.25h-493.95c-114.2,0-200.46-31.97-256.39-95.01-78.75-88.76-65.81-205.28-65.22-210.2,1.35-11.23,8.75-20.83,19.27-24.98,10.5-4.16,22.46-2.21,31.14,5.08.47.37,56.93,46.17,119.62,28.4,58.1-16.42,108.85-83.69,146.79-194.52,64.36-188.03,182.1-282.62,269.54-328.87,95.22-50.36,175.25-55.77,178.61-55.98.63-.04,1.26-.06,1.89-.06h81.41l396.55-635.52c.08-.14.19-.31.28-.45h0c5.85-9.36,15.88-14.5,26.16-14.5ZM1960.59,266.04c-108.55-39.37-155.08-92.04-182.22-140.96-26.38-47.56-36.61-102.36-30.56-165l-190.91,305.96h403.68ZM1445.88,327.64h-41.9c-14.23,1.1-155.46,15.06-273.77,140.25-41.65,120.96-43.32,230.48-5.04,326.19h1237.06c-68.25-85.49-296.74-275.12-980.2-275.12-11.19,0-21.5-6.07-26.94-15.86-5.43-9.79-5.11-21.75.81-31.24l89.99-144.22ZM1310.16,1080.58c-77.44-45.1-170.51-118.18-226.16-228.16-38.16-75.42-53.61-158.15-46.33-247.23-9.61,20.38-18.5,42.23-26.54,65.71-45.56,133.13-109.18,211.88-189.09,234.07-47.79,13.29-91.36,3.3-123.11-10.1,4.48,32.84,16.8,76.05,48.81,111.89,43.77,48.99,114.39,73.83,209.9,73.83h352.52Z"/>
  </g>
  <g class="cls-6">
    <path class="cls-3" d="M1961.6,1439.33c-5.57,0-11.21-1.51-16.28-4.67-14.44-9.01-18.83-28-9.83-42.43l.37-.6c119.5-191.73,153.42-337.05,100.78-431.93-84-151.43-377.94-170.84-624.63-170.84-17.01,0-30.8-13.79-30.8-30.8s13.79-30.8,30.8-30.8h938.38l81.21-130.14c-879.51-13.26-1004.29-342.69-1009.25-356.98-3.27-9.42-1.79-19.84,3.99-27.97,5.77-8.13,15.12-12.95,25.1-12.95h1260.93c-101.78-162.73-301.93-225.59-304.06-226.24-14.58-4.46-23.72-18.93-21.46-34.02,2.25-15.08,15.18-26.25,30.44-26.25h493.95c114.2,0,200.46,31.97,256.39,95.01,78.75,88.76,65.81,205.28,65.22,210.2-1.35,11.23-8.75,20.83-19.27,24.98-10.5,4.16-22.46,2.21-31.14-5.08-.47-.37-56.93-46.17-119.62-28.4-58.1,16.42-108.85,83.69-146.79,194.52-64.36,188.03-182.1,282.62-269.54,328.87-95.22,50.36-175.25,55.77-178.61,55.98-.63.04-1.26.06-1.89.06h-81.41l-396.55,635.52c-.08.14-.19.31-.28.45h0c-5.85,9.36-15.88,14.5-26.16,14.5ZM1908.3,788.85c108.55,39.37,155.08,92.04,182.22,140.96,26.38,47.56,36.61,102.36,30.56,165l190.91-305.96h-403.68ZM2423.01,727.25h41.9c14.23-1.1,155.46-15.06,273.77-140.25,41.65-120.96,43.32-230.48,5.04-326.19h-1237.06c68.25,85.49,296.74,275.12,980.2,275.12,11.19,0,21.5,6.07,26.94,15.86,5.43,9.79,5.11,21.75-.81,31.24l-89.99,144.22ZM2558.73-25.69c77.44,45.1,170.51,118.18,226.16,228.16,38.16,75.42,53.61,158.15,46.33,247.23,9.61-20.38,18.5-42.23,26.54-65.71,45.56-133.13,109.18-211.88,189.09-234.07,47.79-13.29,91.36-3.3,123.11,10.1-4.48-32.84-16.8-76.05-48.81-111.89-43.77-48.99-114.39-73.83-209.9-73.83h-352.52Z"/>
  </g>
</svg>