<svg xmlns="http://www.w3.org/2000/svg" viewBox="0 0 200 200">
  <path fill="#ff6b35" d="M118.18,175.74c-1.03,0-2.07-.28-3-.86-2.66-1.66-3.47-5.16-1.81-7.82l.07-.11c22.02-35.33,28.27-62.11,18.57-79.59-15.48-27.9-69.64-31.48-115.1-31.48-3.13,0-5.68-2.54-5.68-5.68s2.54-5.68,5.68-5.68h172.91l14.96-23.98c-162.06-2.44-185.06-63.15-185.97-65.78-.6-1.74-.33-3.66.74-5.15,1.06-1.5,2.79-2.39,4.62-2.39h232.35c-18.75-29.99-55.63-41.57-56.03-41.69-2.69-.82-4.37-3.49-3.95-6.27.41-2.78,2.8-4.84,5.61-4.84h91.02c21.04,0,36.94,5.89,47.24,17.51,14.51,16.36,12.13,37.83,12.02,38.73-.25,2.07-1.61,3.84-3.55,4.6-1.94.77-4.14.41-5.74-.94-.09-.07-10.49-8.51-22.04-5.23-10.71,3.03-20.06,15.42-27.05,35.84-11.86,34.65-33.55,52.08-49.67,60.6-17.55,9.28-32.29,10.28-32.91,10.32-.12,0-.23.01-.35.01h-15l-73.07,117.11s-.04.06-.05.08h0c-1.08,1.72-2.93,2.67-4.82,2.67Z"/>
</svg>