<?xml version="1.0" encoding="UTF-8"?>
<svg id="Camada_1" data-name="Camada 1" xmlns="http://www.w3.org/2000/svg" viewBox="0 0 1920 1080">
  <defs>
    <style>
      .cls-1 {
        fill: #f7c59f;
      }
    </style>
  </defs>
  <path class="cls-1" d="M474.15,938.03c-5.16,0-9.18-1.59-12.05-4.76-2.88-3.17-4.02-7.83-3.42-13.98l51.46-764.53c.6-6.14,2.03-10.81,4.31-13.98,2.28-3.17,6-4.76,11.16-4.76h98.47c5.15,0,8.87,1.59,11.16,4.76,2.28,3.17,3.72,7.84,4.31,13.98l51.47,764.53c.6,6.15-.55,10.81-3.42,13.98-2.88,3.17-6.89,4.76-12.05,4.76h-44.32c-5.16,0-8.88-1.59-11.16-4.76-2.28-3.17-3.72-7.83-4.31-13.98-1.59-19.04-3.37-41.69-5.35-67.97-1.98-26.28-4.07-54.59-6.25-84.93-.2-1.19-.6-2.08-1.19-2.68-.59-.6-1.39-.89-2.38-.89h-51.17c-1.19,0-2.08.3-2.68.89-.59.59-.89,1.49-.89,2.68-2.38,30.34-4.51,58.66-6.4,84.93-1.89,26.28-3.72,48.94-5.5,67.97-.4,6.15-1.79,10.81-4.16,13.98-2.38,3.17-6.15,4.76-11.3,4.76h-44.33ZM595.82,686.66c1.19,0,2.08-.39,2.68-1.19.6-.79.89-1.59.89-2.38-1.59-24.19-3.17-48.54-4.76-73.03-1.59-24.49-3.12-48.54-4.61-72.14-1.49-23.6-2.83-46.41-4.02-68.42-1.19-22.01-2.23-42.54-3.12-61.58-.89-19.04-1.59-36.34-2.08-51.91-.5-15.57-.74-28.71-.74-39.42v-71.4c0-1.59-.5-2.83-1.49-3.72-.99-.89-2.19-1.34-3.57-1.34-1.59,0-2.88.45-3.87,1.34-.99.89-1.49,2.13-1.49,3.72v71.4c0,10.71-.2,23.85-.6,39.42-.4,15.57-1.04,32.87-1.93,51.91-.89,19.04-1.93,39.57-3.12,61.58-1.19,22.01-2.53,44.82-4.02,68.42-1.49,23.6-3.03,47.65-4.61,72.14-1.59,24.5-3.27,48.84-5.06,73.03,0,.79.45,1.59,1.34,2.38.89.8,1.64,1.19,2.23,1.19h41.95Z"/>
  <path class="cls-1" d="M738.6,938.03c-5.36,0-9.32-1.59-11.9-4.76-2.58-3.17-3.87-7.93-3.87-14.28V154.76c0-6.34,1.29-11.05,3.87-14.13,2.57-3.07,6.54-4.61,11.9-4.61h63.07c4.76,0,8.33,1.39,10.71,4.16,2.38,2.78,3.96,6.84,4.76,12.2l83.89,569.09c.2,1.59.74,2.83,1.64,3.72.89.89,2.03,1.34,3.42,1.34,1.58,0,2.92-.45,4.01-1.34,1.09-.89,1.54-2.23,1.34-4.02l-7.73-84.78c-.6-7.33-1.19-17.85-1.78-31.53-.6-13.68-1.14-29.65-1.64-47.9-.5-18.24-.94-38.32-1.34-60.24-.4-21.91-.79-44.72-1.19-68.42-.4-23.7-.7-47.84-.89-72.44-.2-24.59-.4-48.74-.59-72.44-.2-23.7-.35-46.45-.45-68.27-.1-21.81-.15-41.84-.15-60.09,0-6.34.89-11.1,2.68-14.28,1.78-3.17,5.25-4.76,10.41-4.76h44.92c5.36,0,9.32,1.59,11.9,4.76,2.58,3.17,3.87,7.93,3.87,14.28v764.24c0,6.35-1.29,11.06-3.87,14.13-2.58,3.08-6.54,4.61-11.9,4.61h-63.96c-4.76,0-8.33-1.39-10.71-4.16-2.38-2.78-3.97-6.84-4.76-12.2l-83-569.09c-.4-1.59-.99-2.83-1.79-3.72-.79-.89-1.89-1.34-3.27-1.34-1.59,0-2.88.45-3.87,1.34-.99.89-1.39,2.23-1.19,4.02l7.44,84.78c.6,7.34,1.19,17.85,1.78,31.53.6,13.68,1.14,29.65,1.64,47.89.49,18.25.94,38.33,1.34,60.24.39,21.92.79,44.73,1.19,68.42.4,23.7.69,47.85.89,72.44.2,24.59.4,48.74.6,72.44.2,23.7.34,46.46.45,68.27.1,21.82.15,41.85.15,60.09,0,6.35-.89,11.11-2.68,14.28-1.78,3.17-5.26,4.76-10.41,4.76h-44.92Z"/>
  <path class="cls-1" d="M1020.01,938.03c-5.16,0-9.03-1.59-11.6-4.76-2.58-3.17-3.87-7.83-3.87-13.98V154.76c0-6.14,1.29-10.81,3.87-13.98,2.57-3.17,6.44-4.76,11.6-4.76h86.87c20.23,0,36.89,2.63,49.98,7.88,13.09,5.26,23.55,12.45,31.38,21.57,7.83,9.12,13.28,19.83,16.36,32.13,3.07,12.3,4.61,25.49,4.61,39.57v599.73c0,14.08-1.54,27.27-4.61,39.57-3.08,12.3-8.53,23.01-16.36,32.13-7.84,9.12-18.3,16.32-31.38,21.57-13.09,5.26-29.75,7.88-49.98,7.88h-86.87ZM1106.88,861.88c5.16,0,9.42-.74,12.79-2.23,3.37-1.49,6.05-3.57,8.03-6.25,1.98-2.68,3.37-5.75,4.16-9.22.79-3.47,1.19-7.09,1.19-10.86V240.73c0-4.16-.45-7.98-1.34-11.45-.89-3.47-2.38-6.44-4.46-8.92-2.08-2.48-4.76-4.46-8.03-5.95-3.27-1.49-7.39-2.23-12.35-2.23h-21.12c-1.59,0-2.83.45-3.72,1.34s-1.34,2.13-1.34,3.72v639.59c0,1.59.45,2.83,1.34,3.72.89.89,2.13,1.34,3.72,1.34h21.12Z"/>
  <path class="cls-1" d="M1309.31,936.1c-13.19-5.25-23.7-12.44-31.53-21.57-7.84-9.12-13.29-19.83-16.36-32.13-3.08-12.3-4.61-25.48-4.61-39.57v-405.5c0-14.08,1.53-27.27,4.61-39.57,3.07-12.29,8.53-23,16.36-32.13,7.83-9.12,18.34-16.31,31.53-21.57,13.19-5.25,29.8-7.88,49.83-7.88s36.89,2.63,49.98,7.88c13.09,5.26,23.55,12.45,31.38,21.57,7.83,9.12,13.28,19.83,16.36,32.13,3.07,12.3,4.61,25.49,4.61,39.57v405.5c0,14.08-1.54,27.27-4.61,39.57-3.08,12.3-8.53,23.01-16.36,32.13-7.84,9.13-18.3,16.32-31.38,21.57-13.09,5.25-29.75,7.88-49.98,7.88s-36.64-2.63-49.83-7.88ZM1291.01,284.76c-5.16,0-8.73-1.64-10.71-4.91-1.98-3.27-1.59-7.88,1.19-13.83l50.28-107.69c1.98-3.96,3.76-7.14,5.35-9.52,1.59-2.38,3.22-4.26,4.91-5.65,1.68-1.38,3.52-2.33,5.5-2.83,1.98-.49,3.97-.74,5.95-.74h12.79c4.36,0,8.18,1.29,11.45,3.87,3.27,2.58,6.69,7.54,10.26,14.87l50.57,107.69c2.58,5.55,2.92,10.07,1.04,13.54-1.89,3.47-5.41,5.21-10.56,5.21h-33.91c-5.36,0-9.47-1.59-12.35-4.76-2.88-3.17-4.81-7.83-5.8-13.98l-14.58-83.3c-.4-1.38-1.24-2.08-2.53-2.08s-2.04.7-2.23,2.08l-14.87,83.3c-.99,6.15-2.93,10.81-5.8,13.98-2.88,3.17-6.99,4.76-12.34,4.76h-33.62ZM1371.93,865.6c3.37-1.49,6.05-3.57,8.03-6.25,1.98-2.68,3.37-5.75,4.16-9.22.79-3.47,1.19-7.09,1.19-10.86v-398.36c0-4.16-.45-7.98-1.34-11.45-.89-3.47-2.38-6.44-4.46-8.92-2.08-2.48-4.76-4.46-8.03-5.95-3.27-1.49-7.39-2.23-12.34-2.23-9.72,0-16.51,2.73-20.38,8.18-3.87,5.46-5.8,12.25-5.8,20.38v398.36c0,3.77.45,7.39,1.34,10.86.89,3.47,2.33,6.54,4.31,9.22,1.98,2.68,4.66,4.76,8.03,6.25,3.37,1.49,7.53,2.23,12.49,2.23s9.42-.74,12.79-2.23Z"/>
</svg>