<?xml version="1.0" encoding="UTF-8"?>
<svg id="Camada_1" data-name="Camada 1" xmlns="http://www.w3.org/2000/svg" viewBox="0 0 1920 1080">
  <defs>
    <style>
      .cls-1 {
        fill: #00072d;
      }

      .cls-2 {
        fill: #ff6b35;
      }
    </style>
  </defs>
  <path class="cls-2" d="M470.55,874.58c-2.33,0-4.69-.63-6.81-1.96-6.04-3.77-7.88-11.71-4.11-17.75l.16-.25c49.99-80.2,64.18-140.99,42.16-180.68-35.14-63.34-158.09-71.47-261.29-71.47-7.12,0-12.88-5.77-12.88-12.88s5.77-12.88,12.88-12.88h392.53l33.97-54.44c-367.91-5.55-420.1-143.35-422.18-149.33-1.37-3.94-.75-8.3,1.67-11.7,2.42-3.4,6.33-5.42,10.5-5.42h527.46c-42.58-68.07-126.3-94.37-127.19-94.64-6.1-1.87-9.92-7.92-8.98-14.23.94-6.31,6.35-10.98,12.73-10.98h206.62c47.77,0,83.85,13.37,107.25,39.74,32.94,37.13,27.53,85.87,27.28,87.93-.56,4.7-3.66,8.71-8.06,10.45-4.39,1.74-9.4.93-13.02-2.12-.2-.16-23.81-19.32-50.04-11.88-24.3,6.87-45.54,35.01-61.4,81.37-26.92,78.65-76.17,118.22-112.75,137.57-39.83,21.06-73.31,23.33-74.71,23.42-.26.02-.53.03-.79.03h-34.06l-165.88,265.85c-.04.06-.08.13-.12.19h0c-2.45,3.92-6.64,6.07-10.94,6.07ZM448.25,602.48c45.41,16.47,64.87,38.5,76.22,58.96,11.04,19.9,15.31,42.82,12.78,69.02l79.86-127.98h-168.86ZM663.56,576.71h17.53c5.95-.46,65.03-6.3,114.52-58.67,17.42-50.6,18.12-96.41,2.11-136.45H280.25c28.55,35.76,124.13,115.09,410.03,115.09,4.68,0,8.99,2.54,11.27,6.63,2.27,4.09,2.14,9.1-.34,13.07l-37.64,60.33ZM720.33,261.75c32.4,18.86,71.33,49.44,94.6,95.44,15.96,31.55,22.43,66.15,19.38,103.42,4.02-8.53,7.74-17.67,11.1-27.49,19.06-55.69,45.67-88.63,79.1-97.91,19.99-5.56,38.22-1.38,51.5,4.22-1.87-13.74-7.03-31.81-20.42-46.81-18.31-20.49-47.85-30.88-87.8-30.88h-147.46Z"/>
  <g>
    <path class="cls-1" d="M768.81,514.22h-30.88l-9.86-24.31h-19.49c-28.25,0-52.34,2.85-60.88,24.31h-30.88l62.2-153.31h27.59l62.2,153.31ZM717.35,463.63l-24.53-60.88-29.57,73.15c12.92-9.42,28.03-12.26,45.33-12.26h8.76Z"/>
    <path class="cls-1" d="M862.55,479.84c0,26.06-18.62,37.67-47.52,37.67-24.75,0-46.65-15.55-46.65-40.95h25.62c0,12.48,12.48,17.74,23.87,17.74,9.86,0,18.83-3.94,18.83-10.51,0-22.56-67.24-5.91-67.24-53.22,0-25.84,20.81-38.11,44.9-38.11,30.66,0,45.77,14.89,45.77,40.08h-24.53c0-10.73-11.61-15.77-22.56-15.77-9.64,0-18.83,3.94-18.83,11.83,0,24.09,68.33,4.16,68.33,51.25Z"/>
    <path class="cls-1" d="M991.98,454.87v59.35h-27.6v-20.15c-6.13,12.26-20.37,23.43-37.89,23.43-34.17,0-58.04-24.97-58.04-62.64,0-35.04,23.65-62.42,61.1-62.42s62.42,25.84,62.42,62.42ZM964.39,454.87c0-20.81-14.02-35.04-34.82-35.04-22.34,0-32.41,17.52-32.41,35.04s10.07,35.26,32.41,35.26c20.81,0,34.82-16.86,34.82-35.26Z"/>
    <path class="cls-1" d="M1094.7,479.84c0,26.06-18.62,37.67-47.52,37.67-24.75,0-46.65-15.55-46.65-40.95h25.62c0,12.48,12.48,17.74,23.87,17.74,9.85,0,18.83-3.94,18.83-10.51,0-22.56-67.24-5.91-67.24-53.22,0-25.84,20.81-38.11,44.9-38.11,30.66,0,45.77,14.89,45.77,40.08h-24.53c0-10.73-11.61-15.77-22.56-15.77-9.64,0-18.83,3.94-18.83,11.83,0,24.09,68.33,4.16,68.33,51.25Z"/>
    <path class="cls-1" d="M765.09,648.48c0,39.64-21.02,76.65-72.05,76.65h-63.51v-153.31h63.51c51.03,0,72.05,37.01,72.05,76.65ZM735.09,648.7c0-29.13-12.26-49.5-45.55-49.5h-31.32v98.55h31.32c33.29,0,45.55-20.37,45.55-49.06Z"/>
    <path class="cls-1" d="M894.74,666c0,34.38-26.72,62.42-62.64,62.42s-62.42-28.03-62.42-62.42,26.72-62.64,62.42-62.64,62.64,28.03,62.64,62.64ZM866.27,666c0-19.05-11.83-36.79-34.17-36.79s-33.95,17.74-33.95,36.79,11.83,36.57,33.95,36.57,34.17-17.74,34.17-36.57Z"/>
    <path class="cls-1" d="M1017.39,606.87v118.26h-27.38v-24.31c-9.2,17.3-24.75,27.6-41.61,27.6-23.87,0-45.55-16.43-45.55-48.84v-72.71h27.59v67.89c0,19.05,13.14,29.13,27.6,29.13,16.21,0,31.97-13.14,31.97-36.36v-60.67h27.38Z"/>
    <path class="cls-1" d="M1112.22,606.87v26.06h-33.51c-14.89,0-19.49,6.13-19.49,19.49v72.71h-27.6v-81.47c0-21.9,14.89-36.79,36.79-36.79h43.8Z"/>
    <path class="cls-1" d="M1233.98,665.79v59.35h-27.6v-20.15c-6.13,12.26-20.37,23.43-37.89,23.43-34.17,0-58.04-24.97-58.04-62.64,0-35.04,23.65-62.42,61.1-62.42s62.42,25.84,62.42,62.42ZM1206.39,665.79c0-20.81-14.02-35.04-34.82-35.04-22.34,0-32.41,17.52-32.41,35.04s10.07,35.26,32.41,35.26c20.81,0,34.82-16.86,34.82-35.26Z"/>
    <path class="cls-1" d="M1367.36,559.13v166.01h-27.59v-21.46c-7.67,13.8-22.56,24.75-42.27,24.75-74.46,0-74.46-125.05,0-125.05,19.71,0,34.6,10.95,42.27,24.75v-68.99h27.59ZM1339.77,665.79c0-18.18-11.17-37.45-35.26-37.45-45.12,0-45.12,75.12,0,75.12,24.09,0,35.26-19.27,35.26-37.67Z"/>
    <path class="cls-1" d="M1501.17,665.79v59.35h-27.6v-20.15c-6.13,12.26-20.37,23.43-37.89,23.43-34.17,0-58.04-24.97-58.04-62.64,0-35.04,23.65-62.42,61.1-62.42s62.42,25.84,62.42,62.42ZM1473.58,665.79c0-20.81-14.02-35.04-34.82-35.04-22.34,0-32.41,17.52-32.41,35.04s10.07,35.26,32.41,35.26c20.81,0,34.82-16.86,34.82-35.26Z"/>
    <path class="cls-1" d="M1603.89,690.75c0,26.06-18.62,37.67-47.52,37.67-24.75,0-46.65-15.55-46.65-40.95h25.62c0,12.48,12.48,17.74,23.87,17.74,9.85,0,18.83-3.94,18.83-10.51,0-22.56-67.24-5.91-67.24-53.22,0-25.84,20.81-38.11,44.9-38.11,30.66,0,45.77,14.89,45.77,40.08h-24.53c0-10.73-11.61-15.77-22.56-15.77-9.64,0-18.83,3.94-18.83,11.83,0,24.09,68.33,4.16,68.33,51.25Z"/>
  </g>
  <polygon class="cls-2" points="1132.67 326.39 1144.59 358.59 1176.8 370.51 1144.59 382.43 1132.67 414.64 1120.76 382.43 1088.55 370.51 1120.76 358.59 1132.67 326.39"/>
  <polygon class="cls-2" points="1198.86 314.72 1204.82 330.82 1220.93 336.78 1204.82 342.74 1198.86 358.85 1192.9 342.74 1176.8 336.78 1192.9 330.82 1198.86 314.72"/>
</svg>