<?xml version="1.0" encoding="UTF-8"?>
<svg id="Camada_1" data-name="Camada 1" xmlns="http://www.w3.org/2000/svg" xmlns:xlink="http://www.w3.org/1999/xlink" viewBox="0 0 1920 1080">
  <defs>
    <style>
      .cls-1 {
        fill: none;
      }

      .cls-2 {
        fill: #ff6b35;
      }

      .cls-3 {
        clip-path: url(#clippath-1);
      }

      .cls-4 {
        clip-path: url(#clippath-2);
      }

      .cls-5 {
        fill: #fff;
      }

      .cls-6 {
        fill: #3870a4;
      }
    </style>
    <clipPath id="clippath-1">
      <rect class="cls-1" x="-10" y="-1188.58" width="1940" height="1080"/>
    </clipPath>
    <clipPath id="clippath-2">
      <rect class="cls-1" x="1970" y="-1188.58" width="1940" height="1080"/>
    </clipPath>
  </defs>
  <g class="cls-3">
    <path class="cls-6" d="M-18.4,250.75c-5.57,0-11.21-1.51-16.28-4.67-14.44-9.01-18.83-28-9.83-42.43l.37-.6C75.37,11.32,109.29-134,56.65-228.89c-84-151.43-377.94-170.84-624.63-170.84-17.01,0-30.8-13.79-30.8-30.8s13.79-30.8,30.8-30.8H370.4l81.21-130.14c-879.51-13.26-1004.29-342.69-1009.25-356.98-3.27-9.42-1.79-19.84,3.99-27.97,5.77-8.13,15.12-12.95,25.1-12.95H732.38c-101.78-162.73-301.93-225.59-304.06-226.24-14.58-4.46-23.72-18.93-21.46-34.02,2.25-15.08,15.18-26.25,30.44-26.25h493.95c114.2,0,200.46,31.97,256.39,95.01,78.75,88.76,65.81,205.28,65.22,210.2-1.35,11.23-8.75,20.83-19.27,24.98-10.5,4.16-22.46,2.21-31.14-5.08-.47-.37-56.93-46.17-119.62-28.4-58.1,16.42-108.85,83.69-146.79,194.52-64.36,188.03-182.1,282.62-269.54,328.87-95.22,50.36-175.25,55.77-178.61,55.98-.63.04-1.26.06-1.89.06h-81.41L8.04,235.79c-.08.14-.19.31-.28.45h0c-5.85,9.36-15.88,14.5-26.16,14.5ZM-71.7-399.73c108.55,39.37,155.08,92.04,182.22,140.96,26.38,47.56,36.61,102.36,30.56,165l190.91-305.96H-71.7ZM443.01-461.33h41.9c14.23-1.1,155.46-15.06,273.77-140.25,41.65-120.96,43.32-230.48,5.04-326.19H-473.33c68.25,85.49,296.74,275.12,980.2,275.12,11.19,0,21.5,6.07,26.94,15.86,5.43,9.79,5.11,21.75-.81,31.24l-89.99,144.22ZM578.73-1214.27c77.44,45.1,170.51,118.18,226.16,228.16,38.16,75.42,53.61,158.15,46.33,247.23,9.61-20.38,18.5-42.23,26.54-65.71,45.56-133.13,109.18-211.88,189.09-234.07,47.79-13.29,91.36-3.3,123.11,10.1-4.48-32.84-16.8-76.05-48.81-111.89-43.77-48.99-114.39-73.83-209.9-73.83h-352.52Z"/>
  </g>
  <g class="cls-4">
    <path class="cls-2" d="M1961.6,250.75c-5.57,0-11.21-1.51-16.28-4.67-14.44-9.01-18.83-28-9.83-42.43l.37-.6c119.5-191.73,153.42-337.05,100.78-431.93-84-151.43-377.94-170.84-624.63-170.84-17.01,0-30.8-13.79-30.8-30.8s13.79-30.8,30.8-30.8h938.38l81.21-130.14c-879.51-13.26-1004.29-342.69-1009.25-356.98-3.27-9.42-1.79-19.84,3.99-27.97,5.77-8.13,15.12-12.95,25.1-12.95h1260.93c-101.78-162.73-301.93-225.59-304.06-226.24-14.58-4.46-23.72-18.93-21.46-34.02,2.25-15.08,15.18-26.25,30.44-26.25h493.95c114.2,0,200.46,31.97,256.39,95.01,78.75,88.76,65.81,205.28,65.22,210.2-1.35,11.23-8.75,20.83-19.27,24.98-10.5,4.16-22.46,2.21-31.14-5.08-.47-.37-56.93-46.17-119.62-28.4-58.1,16.42-108.85,83.69-146.79,194.52-64.36,188.03-182.1,282.62-269.54,328.87-95.22,50.36-175.25,55.77-178.61,55.98-.63.04-1.26.06-1.89.06h-81.41l-396.55,635.52c-.08.14-.19.31-.28.45h0c-5.85,9.36-15.88,14.5-26.16,14.5ZM1908.3-399.73c108.55,39.37,155.08,92.04,182.22,140.96,26.38,47.56,36.61,102.36,30.56,165l190.91-305.96h-403.68ZM2423.01-461.33h41.9c14.23-1.1,155.46-15.06,273.77-140.25,41.65-120.96,43.32-230.48,5.04-326.19h-1237.06c68.25,85.49,296.74,275.12,980.2,275.12,11.19,0,21.5,6.07,26.94,15.86,5.43,9.79,5.11,21.75-.81,31.24l-89.99,144.22ZM2558.73-1214.27c77.44,45.1,170.51,118.18,226.16,228.16,38.16,75.42,53.61,158.15,46.33,247.23,9.61-20.38,18.5-42.23,26.54-65.71,45.56-133.13,109.18-211.88,189.09-234.07,47.79-13.29,91.36-3.3,123.11,10.1-4.48-32.84-16.8-76.05-48.81-111.89-43.77-48.99-114.39-73.83-209.9-73.83h-352.52Z"/>
  </g>
  <rect class="cls-5" width="1920" height="1080"/>
  <path class="cls-6" d="M146.5,266.49c-.62,0-1.25-.17-1.82-.52-1.61-1-2.1-3.12-1.1-4.73l.04-.07c13.33-21.39,17.11-37.6,11.24-48.18-9.37-16.89-42.16-19.06-69.68-19.06-1.9,0-3.44-1.54-3.44-3.44s1.54-3.44,3.44-3.44h104.68l9.06-14.52c-98.11-1.48-112.03-38.23-112.58-39.82-.37-1.05-.2-2.21.45-3.12.64-.91,1.69-1.44,2.8-1.44h140.66c-11.35-18.15-33.68-25.16-33.92-25.24-1.63-.5-2.65-2.11-2.39-3.79.25-1.68,1.69-2.93,3.4-2.93h55.1c12.74,0,22.36,3.57,28.6,10.6,8.79,9.9,7.34,22.9,7.28,23.45-.15,1.25-.98,2.32-2.15,2.79-1.17.46-2.51.25-3.47-.57-.05-.04-6.35-5.15-13.34-3.17-6.48,1.83-12.14,9.34-16.37,21.7-7.18,20.97-20.31,31.53-30.07,36.69-10.62,5.62-19.55,6.22-19.92,6.24-.07,0-.14,0-.21,0h-9.08l-44.24,70.89s-.02.03-.03.05h0c-.65,1.04-1.77,1.62-2.92,1.62ZM140.55,193.93c12.11,4.39,17.3,10.27,20.33,15.72,2.94,5.31,4.08,11.42,3.41,18.41l21.3-34.13h-45.03ZM197.97,187.06h4.67c1.59-.12,17.34-1.68,30.54-15.64,4.65-13.49,4.83-25.71.56-36.39H95.75c7.61,9.54,33.1,30.69,109.34,30.69,1.25,0,2.4.68,3,1.77.61,1.09.57,2.43-.09,3.49l-10.04,16.09ZM213.11,103.07c8.64,5.03,19.02,13.18,25.23,25.45,4.26,8.41,5.98,17.64,5.17,27.58,1.07-2.27,2.06-4.71,2.96-7.33,5.08-14.85,12.18-23.64,21.09-26.11,5.33-1.48,10.19-.37,13.73,1.13-.5-3.66-1.87-8.48-5.44-12.48-4.88-5.46-12.76-8.24-23.41-8.24h-39.32Z"/>
  <path class="cls-6" d="M527.63,266.49c-.62,0-1.25-.17-1.82-.52-1.61-1-2.1-3.12-1.1-4.73l.04-.07c13.33-21.39,17.11-37.6,11.24-48.18-9.37-16.89-42.16-19.06-69.68-19.06-1.9,0-3.44-1.54-3.44-3.44s1.54-3.44,3.44-3.44h104.68l9.06-14.52c-98.11-1.48-112.03-38.23-112.58-39.82-.37-1.05-.2-2.21.45-3.12.64-.91,1.69-1.44,2.8-1.44h140.66c-11.35-18.15-33.68-25.16-33.92-25.24-1.63-.5-2.65-2.11-2.39-3.79.25-1.68,1.69-2.93,3.4-2.93h55.1c12.74,0,22.36,3.57,28.6,10.6,8.79,9.9,7.34,22.9,7.28,23.45-.15,1.25-.98,2.32-2.15,2.79-1.17.46-2.51.25-3.47-.57-.05-.04-6.35-5.15-13.34-3.17-6.48,1.83-12.14,9.34-16.37,21.7-7.18,20.97-20.31,31.53-30.07,36.69-10.62,5.62-19.55,6.22-19.92,6.24-.07,0-.14,0-.21,0h-9.08l-44.24,70.89s-.02.03-.03.05h0c-.65,1.04-1.77,1.62-2.92,1.62ZM521.69,193.93c12.11,4.39,17.3,10.27,20.33,15.72,2.94,5.31,4.08,11.42,3.41,18.41l21.3-34.13h-45.03ZM579.1,187.06h4.67c1.59-.12,17.34-1.68,30.54-15.64,4.65-13.49,4.83-25.71.56-36.39h-137.99c7.61,9.54,33.1,30.69,109.34,30.69,1.25,0,2.4.68,3,1.77.61,1.09.57,2.43-.09,3.49l-10.04,16.09ZM594.24,103.07c8.64,5.03,19.02,13.18,25.23,25.45,4.26,8.41,5.98,17.64,5.17,27.58,1.07-2.27,2.06-4.71,2.96-7.33,5.08-14.85,12.18-23.64,21.09-26.11,5.33-1.48,10.19-.37,13.73,1.13-.5-3.66-1.87-8.48-5.44-12.48-4.88-5.46-12.76-8.24-23.41-8.24h-39.32Z"/>
  <path class="cls-6" d="M908.77,266.49c-.62,0-1.25-.17-1.82-.52-1.61-1-2.1-3.12-1.1-4.73l.04-.07c13.33-21.39,17.11-37.6,11.24-48.18-9.37-16.89-42.16-19.06-69.68-19.06-1.9,0-3.44-1.54-3.44-3.44s1.54-3.44,3.44-3.44h104.68l9.06-14.52c-98.11-1.48-112.03-38.23-112.58-39.82-.37-1.05-.2-2.21.45-3.12.64-.91,1.69-1.44,2.8-1.44h140.66c-11.35-18.15-33.68-25.16-33.92-25.24-1.63-.5-2.65-2.11-2.39-3.79.25-1.68,1.69-2.93,3.4-2.93h55.1c12.74,0,22.36,3.57,28.6,10.6,8.79,9.9,7.34,22.9,7.28,23.45-.15,1.25-.98,2.32-2.15,2.79-1.17.46-2.51.25-3.47-.57-.05-.04-6.35-5.15-13.34-3.17-6.48,1.83-12.14,9.34-16.37,21.7-7.18,20.97-20.31,31.53-30.07,36.69-10.62,5.62-19.55,6.22-19.92,6.24-.07,0-.14,0-.21,0h-9.08l-44.24,70.89s-.02.03-.03.05h0c-.65,1.04-1.77,1.62-2.92,1.62ZM902.82,193.93c12.11,4.39,17.3,10.27,20.33,15.72,2.94,5.31,4.08,11.42,3.41,18.41l21.3-34.13h-45.03ZM960.24,187.06h4.67c1.59-.12,17.34-1.68,30.54-15.64,4.65-13.49,4.83-25.71.56-36.39h-137.99c7.61,9.54,33.1,30.69,109.34,30.69,1.25,0,2.4.68,3,1.77.61,1.09.57,2.43-.09,3.49l-10.04,16.09ZM975.38,103.07c8.64,5.03,19.02,13.18,25.23,25.45,4.26,8.41,5.98,17.64,5.17,27.58,1.07-2.27,2.06-4.71,2.96-7.33,5.08-14.85,12.18-23.64,21.09-26.11,5.33-1.48,10.19-.37,13.73,1.13-.5-3.66-1.87-8.48-5.44-12.48-4.88-5.46-12.76-8.24-23.41-8.24h-39.32Z"/>
  <path class="cls-6" d="M1289.9,266.49c-.62,0-1.25-.17-1.82-.52-1.61-1-2.1-3.12-1.1-4.73l.04-.07c13.33-21.39,17.11-37.6,11.24-48.18-9.37-16.89-42.16-19.06-69.68-19.06-1.9,0-3.44-1.54-3.44-3.44s1.54-3.44,3.44-3.44h104.68l9.06-14.52c-98.11-1.48-112.03-38.23-112.58-39.82-.37-1.05-.2-2.21.45-3.12.64-.91,1.69-1.44,2.8-1.44h140.66c-11.35-18.15-33.68-25.16-33.92-25.24-1.63-.5-2.65-2.11-2.39-3.79.25-1.68,1.69-2.93,3.4-2.93h55.1c12.74,0,22.36,3.57,28.6,10.6,8.79,9.9,7.34,22.9,7.28,23.45-.15,1.25-.98,2.32-2.15,2.79-1.17.46-2.51.25-3.47-.57-.05-.04-6.35-5.15-13.34-3.17-6.48,1.83-12.14,9.34-16.37,21.7-7.18,20.97-20.31,31.53-30.07,36.69-10.62,5.62-19.55,6.22-19.92,6.24-.07,0-.14,0-.21,0h-9.08l-44.24,70.89s-.02.03-.03.05h0c-.65,1.04-1.77,1.62-2.92,1.62ZM1283.95,193.93c12.11,4.39,17.3,10.27,20.33,15.72,2.94,5.31,4.08,11.42,3.41,18.41l21.3-34.13h-45.03ZM1341.37,187.06h4.67c1.59-.12,17.34-1.68,30.54-15.64,4.65-13.49,4.83-25.71.56-36.39h-137.99c7.61,9.54,33.1,30.69,109.34,30.69,1.25,0,2.4.68,3,1.77.61,1.09.57,2.43-.09,3.49l-10.04,16.09ZM1356.51,103.07c8.64,5.03,19.02,13.18,25.23,25.45,4.26,8.41,5.98,17.64,5.17,27.58,1.07-2.27,2.06-4.71,2.96-7.33,5.08-14.85,12.18-23.64,21.09-26.11,5.33-1.48,10.19-.37,13.73,1.13-.5-3.66-1.87-8.48-5.44-12.48-4.88-5.46-12.76-8.24-23.41-8.24h-39.32Z"/>
  <path class="cls-6" d="M1671.03,266.49c-.62,0-1.25-.17-1.82-.52-1.61-1-2.1-3.12-1.1-4.73l.04-.07c13.33-21.39,17.11-37.6,11.24-48.18-9.37-16.89-42.16-19.06-69.68-19.06-1.9,0-3.44-1.54-3.44-3.44s1.54-3.44,3.44-3.44h104.68l9.06-14.52c-98.11-1.48-112.03-38.23-112.58-39.82-.37-1.05-.2-2.21.45-3.12.64-.91,1.69-1.44,2.8-1.44h140.66c-11.35-18.15-33.68-25.16-33.92-25.24-1.63-.5-2.65-2.11-2.39-3.79.25-1.68,1.69-2.93,3.4-2.93h55.1c12.74,0,22.36,3.57,28.6,10.6,8.79,9.9,7.34,22.9,7.28,23.45-.15,1.25-.98,2.32-2.15,2.79-1.17.46-2.51.25-3.47-.57-.05-.04-6.35-5.15-13.34-3.17-6.48,1.83-12.14,9.34-16.37,21.7-7.18,20.97-20.31,31.53-30.07,36.69-10.62,5.62-19.55,6.22-19.92,6.24-.07,0-.14,0-.21,0h-9.08l-44.24,70.89s-.02.03-.03.05h0c-.65,1.04-1.77,1.62-2.92,1.62ZM1665.09,193.93c12.11,4.39,17.3,10.27,20.33,15.72,2.94,5.31,4.08,11.42,3.41,18.41l21.3-34.13h-45.03ZM1722.5,187.06h4.67c1.59-.12,17.34-1.68,30.54-15.64,4.65-13.49,4.83-25.71.56-36.39h-137.99c7.61,9.54,33.1,30.69,109.34,30.69,1.25,0,2.4.68,3,1.77.61,1.09.57,2.43-.09,3.49l-10.04,16.09ZM1737.64,103.07c8.64,5.03,19.02,13.18,25.23,25.45,4.26,8.41,5.98,17.64,5.17,27.58,1.07-2.27,2.06-4.71,2.96-7.33,5.08-14.85,12.18-23.64,21.09-26.11,5.33-1.48,10.19-.37,13.73,1.13-.5-3.66-1.87-8.48-5.44-12.48-4.88-5.46-12.76-8.24-23.41-8.24h-39.32Z"/>
  <path class="cls-6" d="M146.5,598.57c-.62,0-1.25-.17-1.82-.52-1.61-1-2.1-3.12-1.1-4.73l.04-.07c13.33-21.39,17.11-37.6,11.24-48.18-9.37-16.89-42.16-19.06-69.68-19.06-1.9,0-3.44-1.54-3.44-3.44s1.54-3.44,3.44-3.44h104.68l9.06-14.52c-98.11-1.48-112.03-38.23-112.58-39.82-.37-1.05-.2-2.21.45-3.12.64-.91,1.69-1.44,2.8-1.44h140.66c-11.35-18.15-33.68-25.16-33.92-25.24-1.63-.5-2.65-2.11-2.39-3.79.25-1.68,1.69-2.93,3.4-2.93h55.1c12.74,0,22.36,3.57,28.6,10.6,8.79,9.9,7.34,22.9,7.28,23.45-.15,1.25-.98,2.32-2.15,2.79-1.17.46-2.51.25-3.47-.57-.05-.04-6.35-5.15-13.34-3.17-6.48,1.83-12.14,9.34-16.37,21.7-7.18,20.97-20.31,31.53-30.07,36.69-10.62,5.62-19.55,6.22-19.92,6.24-.07,0-.14,0-.21,0h-9.08l-44.24,70.89s-.02.03-.03.05h0c-.65,1.04-1.77,1.62-2.92,1.62ZM140.55,526.01c12.11,4.39,17.3,10.27,20.33,15.72,2.94,5.31,4.08,11.42,3.41,18.41l21.3-34.13h-45.03ZM197.97,519.14h4.67c1.59-.12,17.34-1.68,30.54-15.64,4.65-13.49,4.83-25.71.56-36.39H95.75c7.61,9.54,33.1,30.69,109.34,30.69,1.25,0,2.4.68,3,1.77.61,1.09.57,2.43-.09,3.49l-10.04,16.09ZM213.11,435.15c8.64,5.03,19.02,13.18,25.23,25.45,4.26,8.41,5.98,17.64,5.17,27.58,1.07-2.27,2.06-4.71,2.96-7.33,5.08-14.85,12.18-23.64,21.09-26.11,5.33-1.48,10.19-.37,13.73,1.13-.5-3.66-1.87-8.48-5.44-12.48-4.88-5.46-12.76-8.24-23.41-8.24h-39.32Z"/>
  <path class="cls-6" d="M527.63,598.57c-.62,0-1.25-.17-1.82-.52-1.61-1-2.1-3.12-1.1-4.73l.04-.07c13.33-21.39,17.11-37.6,11.24-48.18-9.37-16.89-42.16-19.06-69.68-19.06-1.9,0-3.44-1.54-3.44-3.44s1.54-3.44,3.44-3.44h104.68l9.06-14.52c-98.11-1.48-112.03-38.23-112.58-39.82-.37-1.05-.2-2.21.45-3.12.64-.91,1.69-1.44,2.8-1.44h140.66c-11.35-18.15-33.68-25.16-33.92-25.24-1.63-.5-2.65-2.11-2.39-3.79.25-1.68,1.69-2.93,3.4-2.93h55.1c12.74,0,22.36,3.57,28.6,10.6,8.79,9.9,7.34,22.9,7.28,23.45-.15,1.25-.98,2.32-2.15,2.79-1.17.46-2.51.25-3.47-.57-.05-.04-6.35-5.15-13.34-3.17-6.48,1.83-12.14,9.34-16.37,21.7-7.18,20.97-20.31,31.53-30.07,36.69-10.62,5.62-19.55,6.22-19.92,6.24-.07,0-.14,0-.21,0h-9.08l-44.24,70.89s-.02.03-.03.05h0c-.65,1.04-1.77,1.62-2.92,1.62ZM521.69,526.01c12.11,4.39,17.3,10.27,20.33,15.72,2.94,5.31,4.08,11.42,3.41,18.41l21.3-34.13h-45.03ZM579.1,519.14h4.67c1.59-.12,17.34-1.68,30.54-15.64,4.65-13.49,4.83-25.71.56-36.39h-137.99c7.61,9.54,33.1,30.69,109.34,30.69,1.25,0,2.4.68,3,1.77.61,1.09.57,2.43-.09,3.49l-10.04,16.09ZM594.24,435.15c8.64,5.03,19.02,13.18,25.23,25.45,4.26,8.41,5.98,17.64,5.17,27.58,1.07-2.27,2.06-4.71,2.96-7.33,5.08-14.85,12.18-23.64,21.09-26.11,5.33-1.48,10.19-.37,13.73,1.13-.5-3.66-1.87-8.48-5.44-12.48-4.88-5.46-12.76-8.24-23.41-8.24h-39.32Z"/>
  <path class="cls-6" d="M908.77,598.57c-.62,0-1.25-.17-1.82-.52-1.61-1-2.1-3.12-1.1-4.73l.04-.07c13.33-21.39,17.11-37.6,11.24-48.18-9.37-16.89-42.16-19.06-69.68-19.06-1.9,0-3.44-1.54-3.44-3.44s1.54-3.44,3.44-3.44h104.68l9.06-14.52c-98.11-1.48-112.03-38.23-112.58-39.82-.37-1.05-.2-2.21.45-3.12.64-.91,1.69-1.44,2.8-1.44h140.66c-11.35-18.15-33.68-25.16-33.92-25.24-1.63-.5-2.65-2.11-2.39-3.79.25-1.68,1.69-2.93,3.4-2.93h55.1c12.74,0,22.36,3.57,28.6,10.6,8.79,9.9,7.34,22.9,7.28,23.45-.15,1.25-.98,2.32-2.15,2.79-1.17.46-2.51.25-3.47-.57-.05-.04-6.35-5.15-13.34-3.17-6.48,1.83-12.14,9.34-16.37,21.7-7.18,20.97-20.31,31.53-30.07,36.69-10.62,5.62-19.55,6.22-19.92,6.24-.07,0-.14,0-.21,0h-9.08l-44.24,70.89s-.02.03-.03.05h0c-.65,1.04-1.77,1.62-2.92,1.62ZM902.82,526.01c12.11,4.39,17.3,10.27,20.33,15.72,2.94,5.31,4.08,11.42,3.41,18.41l21.3-34.13h-45.03ZM960.24,519.14h4.67c1.59-.12,17.34-1.68,30.54-15.64,4.65-13.49,4.83-25.71.56-36.39h-137.99c7.61,9.54,33.1,30.69,109.34,30.69,1.25,0,2.4.68,3,1.77.61,1.09.57,2.43-.09,3.49l-10.04,16.09ZM975.38,435.15c8.64,5.03,19.02,13.18,25.23,25.45,4.26,8.41,5.98,17.64,5.17,27.58,1.07-2.27,2.06-4.71,2.96-7.33,5.08-14.85,12.18-23.64,21.09-26.11,5.33-1.48,10.19-.37,13.73,1.13-.5-3.66-1.87-8.48-5.44-12.48-4.88-5.46-12.76-8.24-23.41-8.24h-39.32Z"/>
  <path class="cls-6" d="M1289.9,598.57c-.62,0-1.25-.17-1.82-.52-1.61-1-2.1-3.12-1.1-4.73l.04-.07c13.33-21.39,17.11-37.6,11.24-48.18-9.37-16.89-42.16-19.06-69.68-19.06-1.9,0-3.44-1.54-3.44-3.44s1.54-3.44,3.44-3.44h104.68l9.06-14.52c-98.11-1.48-112.03-38.23-112.58-39.82-.37-1.05-.2-2.21.45-3.12.64-.91,1.69-1.44,2.8-1.44h140.66c-11.35-18.15-33.68-25.16-33.92-25.24-1.63-.5-2.65-2.11-2.39-3.79.25-1.68,1.69-2.93,3.4-2.93h55.1c12.74,0,22.36,3.57,28.6,10.6,8.79,9.9,7.34,22.9,7.28,23.45-.15,1.25-.98,2.32-2.15,2.79-1.17.46-2.51.25-3.47-.57-.05-.04-6.35-5.15-13.34-3.17-6.48,1.83-12.14,9.34-16.37,21.7-7.18,20.97-20.31,31.53-30.07,36.69-10.62,5.62-19.55,6.22-19.92,6.24-.07,0-.14,0-.21,0h-9.08l-44.24,70.89s-.02.03-.03.05h0c-.65,1.04-1.77,1.62-2.92,1.62ZM1283.95,526.01c12.11,4.39,17.3,10.27,20.33,15.72,2.94,5.31,4.08,11.42,3.41,18.41l21.3-34.13h-45.03ZM1341.37,519.14h4.67c1.59-.12,17.34-1.68,30.54-15.64,4.65-13.49,4.83-25.71.56-36.39h-137.99c7.61,9.54,33.1,30.69,109.34,30.69,1.25,0,2.4.68,3,1.77.61,1.09.57,2.43-.09,3.49l-10.04,16.09ZM1356.51,435.15c8.64,5.03,19.02,13.18,25.23,25.45,4.26,8.41,5.98,17.64,5.17,27.58,1.07-2.27,2.06-4.71,2.96-7.33,5.08-14.85,12.18-23.64,21.09-26.11,5.33-1.48,10.19-.37,13.73,1.13-.5-3.66-1.87-8.48-5.44-12.48-4.88-5.46-12.76-8.24-23.41-8.24h-39.32Z"/>
  <path class="cls-6" d="M1671.03,598.57c-.62,0-1.25-.17-1.82-.52-1.61-1-2.1-3.12-1.1-4.73l.04-.07c13.33-21.39,17.11-37.6,11.24-48.18-9.37-16.89-42.16-19.06-69.68-19.06-1.9,0-3.44-1.54-3.44-3.44s1.54-3.44,3.44-3.44h104.68l9.06-14.52c-98.11-1.48-112.03-38.23-112.58-39.82-.37-1.05-.2-2.21.45-3.12.64-.91,1.69-1.44,2.8-1.44h140.66c-11.35-18.15-33.68-25.16-33.92-25.24-1.63-.5-2.65-2.11-2.39-3.79.25-1.68,1.69-2.93,3.4-2.93h55.1c12.74,0,22.36,3.57,28.6,10.6,8.79,9.9,7.34,22.9,7.28,23.45-.15,1.25-.98,2.32-2.15,2.79-1.17.46-2.51.25-3.47-.57-.05-.04-6.35-5.15-13.34-3.17-6.48,1.83-12.14,9.34-16.37,21.7-7.18,20.97-20.31,31.53-30.07,36.69-10.62,5.62-19.55,6.22-19.92,6.24-.07,0-.14,0-.21,0h-9.08l-44.24,70.89s-.02.03-.03.05h0c-.65,1.04-1.77,1.62-2.92,1.62ZM1665.09,526.01c12.11,4.39,17.3,10.27,20.33,15.72,2.94,5.31,4.08,11.42,3.41,18.41l21.3-34.13h-45.03ZM1722.5,519.14h4.67c1.59-.12,17.34-1.68,30.54-15.64,4.65-13.49,4.83-25.71.56-36.39h-137.99c7.61,9.54,33.1,30.69,109.34,30.69,1.25,0,2.4.68,3,1.77.61,1.09.57,2.43-.09,3.49l-10.04,16.09ZM1737.64,435.15c8.64,5.03,19.02,13.18,25.23,25.45,4.26,8.41,5.98,17.64,5.17,27.58,1.07-2.27,2.06-4.71,2.96-7.33,5.08-14.85,12.18-23.64,21.09-26.11,5.33-1.48,10.19-.37,13.73,1.13-.5-3.66-1.87-8.48-5.44-12.48-4.88-5.46-12.76-8.24-23.41-8.24h-39.32Z"/>
  <path class="cls-6" d="M146.5,930.65c-.62,0-1.25-.17-1.82-.52-1.61-1-2.1-3.12-1.1-4.73l.04-.07c13.33-21.39,17.11-37.6,11.24-48.18-9.37-16.89-42.16-19.06-69.68-19.06-1.9,0-3.44-1.54-3.44-3.44s1.54-3.44,3.44-3.44h104.68l9.06-14.52c-98.11-1.48-112.03-38.23-112.58-39.82-.37-1.05-.2-2.21.45-3.12.64-.91,1.69-1.44,2.8-1.44h140.66c-11.35-18.15-33.68-25.16-33.92-25.24-1.63-.5-2.65-2.11-2.39-3.79.25-1.68,1.69-2.93,3.4-2.93h55.1c12.74,0,22.36,3.57,28.6,10.6,8.79,9.9,7.34,22.9,7.28,23.45-.15,1.25-.98,2.32-2.15,2.79-1.17.46-2.51.25-3.47-.57-.05-.04-6.35-5.15-13.34-3.17-6.48,1.83-12.14,9.34-16.37,21.7-7.18,20.97-20.31,31.53-30.07,36.69-10.62,5.62-19.55,6.22-19.92,6.24-.07,0-.14,0-.21,0h-9.08l-44.24,70.89s-.02.03-.03.05h0c-.65,1.04-1.77,1.62-2.92,1.62ZM140.55,858.09c12.11,4.39,17.3,10.27,20.33,15.72,2.94,5.31,4.08,11.42,3.41,18.41l21.3-34.13h-45.03ZM197.97,851.22h4.67c1.59-.12,17.34-1.68,30.54-15.64,4.65-13.49,4.83-25.71.56-36.39H95.75c7.61,9.54,33.1,30.69,109.34,30.69,1.25,0,2.4.68,3,1.77.61,1.09.57,2.43-.09,3.49l-10.04,16.09ZM213.11,767.23c8.64,5.03,19.02,13.18,25.23,25.45,4.26,8.41,5.98,17.64,5.17,27.58,1.07-2.27,2.06-4.71,2.96-7.33,5.08-14.85,12.18-23.64,21.09-26.11,5.33-1.48,10.19-.37,13.73,1.13-.5-3.66-1.87-8.48-5.44-12.48-4.88-5.46-12.76-8.24-23.41-8.24h-39.32Z"/>
  <path class="cls-6" d="M527.63,930.65c-.62,0-1.25-.17-1.82-.52-1.61-1-2.1-3.12-1.1-4.73l.04-.07c13.33-21.39,17.11-37.6,11.24-48.18-9.37-16.89-42.16-19.06-69.68-19.06-1.9,0-3.44-1.54-3.44-3.44s1.54-3.44,3.44-3.44h104.68l9.06-14.52c-98.11-1.48-112.03-38.23-112.58-39.82-.37-1.05-.2-2.21.45-3.12.64-.91,1.69-1.44,2.8-1.44h140.66c-11.35-18.15-33.68-25.16-33.92-25.24-1.63-.5-2.65-2.11-2.39-3.79.25-1.68,1.69-2.93,3.4-2.93h55.1c12.74,0,22.36,3.57,28.6,10.6,8.79,9.9,7.34,22.9,7.28,23.45-.15,1.25-.98,2.32-2.15,2.79-1.17.46-2.51.25-3.47-.57-.05-.04-6.35-5.15-13.34-3.17-6.48,1.83-12.14,9.34-16.37,21.7-7.18,20.97-20.31,31.53-30.07,36.69-10.62,5.62-19.55,6.22-19.92,6.24-.07,0-.14,0-.21,0h-9.08l-44.24,70.89s-.02.03-.03.05h0c-.65,1.04-1.77,1.62-2.92,1.62ZM521.69,858.09c12.11,4.39,17.3,10.27,20.33,15.72,2.94,5.31,4.08,11.42,3.41,18.41l21.3-34.13h-45.03ZM579.1,851.22h4.67c1.59-.12,17.34-1.68,30.54-15.64,4.65-13.49,4.83-25.71.56-36.39h-137.99c7.61,9.54,33.1,30.69,109.34,30.69,1.25,0,2.4.68,3,1.77.61,1.09.57,2.43-.09,3.49l-10.04,16.09ZM594.24,767.23c8.64,5.03,19.02,13.18,25.23,25.45,4.26,8.41,5.98,17.64,5.17,27.58,1.07-2.27,2.06-4.71,2.96-7.33,5.08-14.85,12.18-23.64,21.09-26.11,5.33-1.48,10.19-.37,13.73,1.13-.5-3.66-1.87-8.48-5.44-12.48-4.88-5.46-12.76-8.24-23.41-8.24h-39.32Z"/>
  <path class="cls-6" d="M908.77,930.65c-.62,0-1.25-.17-1.82-.52-1.61-1-2.1-3.12-1.1-4.73l.04-.07c13.33-21.39,17.11-37.6,11.24-48.18-9.37-16.89-42.16-19.06-69.68-19.06-1.9,0-3.44-1.54-3.44-3.44s1.54-3.44,3.44-3.44h104.68l9.06-14.52c-98.11-1.48-112.03-38.23-112.58-39.82-.37-1.05-.2-2.21.45-3.12.64-.91,1.69-1.44,2.8-1.44h140.66c-11.35-18.15-33.68-25.16-33.92-25.24-1.63-.5-2.65-2.11-2.39-3.79.25-1.68,1.69-2.93,3.4-2.93h55.1c12.74,0,22.36,3.57,28.6,10.6,8.79,9.9,7.34,22.9,7.28,23.45-.15,1.25-.98,2.32-2.15,2.79-1.17.46-2.51.25-3.47-.57-.05-.04-6.35-5.15-13.34-3.17-6.48,1.83-12.14,9.34-16.37,21.7-7.18,20.97-20.31,31.53-30.07,36.69-10.62,5.62-19.55,6.22-19.92,6.24-.07,0-.14,0-.21,0h-9.08l-44.24,70.89s-.02.03-.03.05h0c-.65,1.04-1.77,1.62-2.92,1.62ZM902.82,858.09c12.11,4.39,17.3,10.27,20.33,15.72,2.94,5.31,4.08,11.42,3.41,18.41l21.3-34.13h-45.03ZM960.24,851.22h4.67c1.59-.12,17.34-1.68,30.54-15.64,4.65-13.49,4.83-25.71.56-36.39h-137.99c7.61,9.54,33.1,30.69,109.34,30.69,1.25,0,2.4.68,3,1.77.61,1.09.57,2.43-.09,3.49l-10.04,16.09ZM975.38,767.23c8.64,5.03,19.02,13.18,25.23,25.45,4.26,8.41,5.98,17.64,5.17,27.58,1.07-2.27,2.06-4.71,2.96-7.33,5.08-14.85,12.18-23.64,21.09-26.11,5.33-1.48,10.19-.37,13.73,1.13-.5-3.66-1.87-8.48-5.44-12.48-4.88-5.46-12.76-8.24-23.41-8.24h-39.32Z"/>
  <path class="cls-6" d="M1289.9,930.65c-.62,0-1.25-.17-1.82-.52-1.61-1-2.1-3.12-1.1-4.73l.04-.07c13.33-21.39,17.11-37.6,11.24-48.18-9.37-16.89-42.16-19.06-69.68-19.06-1.9,0-3.44-1.54-3.44-3.44s1.54-3.44,3.44-3.44h104.68l9.06-14.52c-98.11-1.48-112.03-38.23-112.58-39.82-.37-1.05-.2-2.21.45-3.12.64-.91,1.69-1.44,2.8-1.44h140.66c-11.35-18.15-33.68-25.16-33.92-25.24-1.63-.5-2.65-2.11-2.39-3.79.25-1.68,1.69-2.93,3.4-2.93h55.1c12.74,0,22.36,3.57,28.6,10.6,8.79,9.9,7.34,22.9,7.28,23.45-.15,1.25-.98,2.32-2.15,2.79-1.17.46-2.51.25-3.47-.57-.05-.04-6.35-5.15-13.34-3.17-6.48,1.83-12.14,9.34-16.37,21.7-7.18,20.97-20.31,31.53-30.07,36.69-10.62,5.62-19.55,6.22-19.92,6.24-.07,0-.14,0-.21,0h-9.08l-44.24,70.89s-.02.03-.03.05h0c-.65,1.04-1.77,1.62-2.92,1.62ZM1283.95,858.09c12.11,4.39,17.3,10.27,20.33,15.72,2.94,5.31,4.08,11.42,3.41,18.41l21.3-34.13h-45.03ZM1341.37,851.22h4.67c1.59-.12,17.34-1.68,30.54-15.64,4.65-13.49,4.83-25.71.56-36.39h-137.99c7.61,9.54,33.1,30.69,109.34,30.69,1.25,0,2.4.68,3,1.77.61,1.09.57,2.43-.09,3.49l-10.04,16.09ZM1356.51,767.23c8.64,5.03,19.02,13.18,25.23,25.45,4.26,8.41,5.98,17.64,5.17,27.58,1.07-2.27,2.06-4.71,2.96-7.33,5.08-14.85,12.18-23.64,21.09-26.11,5.33-1.48,10.19-.37,13.73,1.13-.5-3.66-1.87-8.48-5.44-12.48-4.88-5.46-12.76-8.24-23.41-8.24h-39.32Z"/>
  <path class="cls-6" d="M1671.03,930.65c-.62,0-1.25-.17-1.82-.52-1.61-1-2.1-3.12-1.1-4.73l.04-.07c13.33-21.39,17.11-37.6,11.24-48.18-9.37-16.89-42.16-19.06-69.68-19.06-1.9,0-3.44-1.54-3.44-3.44s1.54-3.44,3.44-3.44h104.68l9.06-14.52c-98.11-1.48-112.03-38.23-112.58-39.82-.37-1.05-.2-2.21.45-3.12.64-.91,1.69-1.44,2.8-1.44h140.66c-11.35-18.15-33.68-25.16-33.92-25.24-1.63-.5-2.65-2.11-2.39-3.79.25-1.68,1.69-2.93,3.4-2.93h55.1c12.74,0,22.36,3.57,28.6,10.6,8.79,9.9,7.34,22.9,7.28,23.45-.15,1.25-.98,2.32-2.15,2.79-1.17.46-2.51.25-3.47-.57-.05-.04-6.35-5.15-13.34-3.17-6.48,1.83-12.14,9.34-16.37,21.7-7.18,20.97-20.31,31.53-30.07,36.69-10.62,5.62-19.55,6.22-19.92,6.24-.07,0-.14,0-.21,0h-9.08l-44.24,70.89s-.02.03-.03.05h0c-.65,1.04-1.77,1.62-2.92,1.62ZM1665.09,858.09c12.11,4.39,17.3,10.27,20.33,15.72,2.94,5.31,4.08,11.42,3.41,18.41l21.3-34.13h-45.03ZM1722.5,851.22h4.67c1.59-.12,17.34-1.68,30.54-15.64,4.65-13.49,4.83-25.71.56-36.39h-137.99c7.61,9.54,33.1,30.69,109.34,30.69,1.25,0,2.4.68,3,1.77.61,1.09.57,2.43-.09,3.49l-10.04,16.09ZM1737.64,767.23c8.64,5.03,19.02,13.18,25.23,25.45,4.26,8.41,5.98,17.64,5.17,27.58,1.07-2.27,2.06-4.71,2.96-7.33,5.08-14.85,12.18-23.64,21.09-26.11,5.33-1.48,10.19-.37,13.73,1.13-.5-3.66-1.87-8.48-5.44-12.48-4.88-5.46-12.76-8.24-23.41-8.24h-39.32Z"/>
  <g>
    <polygon class="cls-6" points="390.75 276.77 402.07 307.38 432.68 318.71 402.07 330.03 390.75 360.64 379.42 330.03 348.81 318.71 379.42 307.38 390.75 276.77"/>
    <polygon class="cls-6" points="752.92 276.77 764.25 307.38 794.86 318.71 764.25 330.03 752.92 360.64 741.59 330.03 710.98 318.71 741.59 307.38 752.92 276.77"/>
    <polygon class="cls-6" points="1115.1 276.77 1126.42 307.38 1157.03 318.71 1126.42 330.03 1115.1 360.64 1103.77 330.03 1073.16 318.71 1103.77 307.38 1115.1 276.77"/>
    <polygon class="cls-6" points="1477.27 276.77 1488.6 307.38 1519.21 318.71 1488.6 330.03 1477.27 360.64 1465.94 330.03 1435.33 318.71 1465.94 307.38 1477.27 276.77"/>
  </g>
  <g>
    <polygon class="cls-6" points="390.75 608.22 402.07 638.83 432.68 650.16 402.07 661.49 390.75 692.1 379.42 661.49 348.81 650.16 379.42 638.83 390.75 608.22"/>
    <polygon class="cls-6" points="752.92 608.22 764.25 638.83 794.86 650.16 764.25 661.49 752.92 692.1 741.59 661.49 710.98 650.16 741.59 638.83 752.92 608.22"/>
    <polygon class="cls-6" points="1115.1 608.22 1126.42 638.83 1157.03 650.16 1126.42 661.49 1115.1 692.1 1103.77 661.49 1073.16 650.16 1103.77 638.83 1115.1 608.22"/>
    <polygon class="cls-6" points="1477.27 608.22 1488.6 638.83 1519.21 650.16 1488.6 661.49 1477.27 692.1 1465.94 661.49 1435.33 650.16 1465.94 638.83 1477.27 608.22"/>
  </g>
  <g>
    <polygon class="cls-6" points="390.75 939.68 402.07 970.29 432.68 981.61 402.07 992.94 390.75 1023.55 379.42 992.94 348.81 981.61 379.42 970.29 390.75 939.68"/>
    <polygon class="cls-6" points="752.92 939.68 764.25 970.29 794.86 981.61 764.25 992.94 752.92 1023.55 741.59 992.94 710.98 981.61 741.59 970.29 752.92 939.68"/>
    <polygon class="cls-6" points="1115.1 939.68 1126.42 970.29 1157.03 981.61 1126.42 992.94 1115.1 1023.55 1103.77 992.94 1073.16 981.61 1103.77 970.29 1115.1 939.68"/>
    <polygon class="cls-6" points="1477.27 939.68 1488.6 970.29 1519.21 981.61 1488.6 992.94 1477.27 1023.55 1465.94 992.94 1435.33 981.61 1465.94 970.29 1477.27 939.68"/>
  </g>
</svg>